solid stl_item0
  facet normal 0 0 -1
    outer loop
      vertex 3 -27 0.25
      vertex 3 -40 0.25
      vertex -10 -40 0.25
    endloop
  endfacet
  facet normal 0 0 -1
    outer loop
      vertex 3 -27 0.25
      vertex -10 -40 0.25
      vertex -10 -27 0.25
    endloop
  endfacet
  facet normal 0 0 1
    outer loop
      vertex 3 -27 25.25
      vertex -10 -27 25.25
      vertex -10 -40 25.25
    endloop
  endfacet
  facet normal 0 0 1
    outer loop
      vertex 3 -27 25.25
      vertex -10 -40 25.25
      vertex 3 -40 25.25
    endloop
  endfacet
  facet normal 1 0 0
    outer loop
      vertex 3 -40 25.25
      vertex 3 -38.753 24.003
      vertex 3 -28.248 24.003
    endloop
  endfacet
  facet normal 1 0 0
    outer loop
      vertex 3 -40 25.25
      vertex 3 -28.248 24.003
      vertex 3 -27 25.25
    endloop
  endfacet
  facet normal 1 0 0
    outer loop
      vertex 3 -28.248 13.497
      vertex 3 -27 25.25
      vertex 3 -28.248 24.003
    endloop
  endfacet
  facet normal 1 0 0
    outer loop
      vertex 3 -40 25.25
      vertex 3 -40 0.25
      vertex 3 -38.753 13.497
    endloop
  endfacet
  facet normal 1 0 0
    outer loop
      vertex 3 -38.753 13.497
      vertex 3 -38.753 24.003
      vertex 3 -40 25.25
    endloop
  endfacet
  facet normal -1 0 0
    outer loop
      vertex -10 -28.248 13.497
      vertex -10 -28.248 24.003
      vertex -10 -27 25.25
    endloop
  endfacet
  facet normal -1 0 0
    outer loop
      vertex -10 -27 25.25
      vertex -10 -27 0.25
      vertex -10 -28.248 13.497
    endloop
  endfacet
  facet normal -1 0 0
    outer loop
      vertex -10 -38.753 13.497
      vertex -10 -28.248 13.497
      vertex -10 -40 0.25
    endloop
  endfacet
  facet normal -1 0 0
    outer loop
      vertex -10 -38.753 13.497
      vertex -10 -40 25.25
      vertex -10 -38.753 24.003
    endloop
  endfacet
  facet normal -1 0 0
    outer loop
      vertex -10 -38.753 24.003
      vertex -10 -40 25.25
      vertex -10 -28.248 24.003
    endloop
  endfacet
  facet normal -1 0 0
    outer loop
      vertex -10 -27 25.25
      vertex -10 -28.248 24.003
      vertex -10 -40 25.25
    endloop
  endfacet
  facet normal 0 1 0
    outer loop
      vertex -8.753 -27 12.003
      vertex -10 -27 25.25
      vertex 1.753 -27 12.003
    endloop
  endfacet
  facet normal 0 -1 0
    outer loop
      vertex 3 -28.248 24.003
      vertex -10 -28.248 24.003
      vertex -10 -28.248 13.497
    endloop
  endfacet
  facet normal 0 -1 0
    outer loop
      vertex 3 -28.248 24.003
      vertex -10 -28.248 13.497
      vertex 3 -28.248 13.497
    endloop
  endfacet
  facet normal 0 1 0
    outer loop
      vertex 3 -38.753 13.497
      vertex -10 -38.753 13.497
      vertex -10 -38.753 24.003
    endloop
  endfacet
  facet normal 0 1 0
    outer loop
      vertex 3 -38.753 13.497
      vertex -10 -38.753 24.003
      vertex 3 -38.753 24.003
    endloop
  endfacet
  facet normal 0 0 -1
    outer loop
      vertex -10 -28.248 24.003
      vertex 3 -28.248 24.003
      vertex 3 -38.753 24.003
    endloop
  endfacet
  facet normal 0 0 -1
    outer loop
      vertex -10 -28.248 24.003
      vertex 3 -38.753 24.003
      vertex -10 -38.753 24.003
    endloop
  endfacet
  facet normal 0 0 1
    outer loop
      vertex -10 -38.753 13.497
      vertex 3 -38.753 13.497
      vertex 3 -28.248 13.497
    endloop
  endfacet
  facet normal 0 0 1
    outer loop
      vertex -10 -38.753 13.497
      vertex 3 -28.248 13.497
      vertex -10 -28.248 13.497
    endloop
  endfacet
  facet normal 0 1 0
    outer loop
      vertex -10 -27 25.25
      vertex -8.753 -27 12.003
      vertex -10 -27 0.25
    endloop
  endfacet
  facet normal 0 -1 0
    outer loop
      vertex -8.753 -40 1.497
      vertex -8.753 -40 12.003
      vertex -10 -40 0.25
    endloop
  endfacet
  facet normal 0 1 0
    outer loop
      vertex 1.753 -27 1.497
      vertex 1.753 -27 12.003
      vertex 3 -27 0.25
    endloop
  endfacet
  facet normal 1 0 0
    outer loop
      vertex -8.753 -27 12.003
      vertex -8.753 -40 12.003
      vertex -8.753 -40 1.497
    endloop
  endfacet
  facet normal 1 0 0
    outer loop
      vertex -8.753 -27 12.003
      vertex -8.753 -40 1.497
      vertex -8.753 -27 1.497
    endloop
  endfacet
  facet normal 0 -1 0
    outer loop
      vertex 1.753 -40 1.497
      vertex 3 -40 0.25
      vertex 1.753 -40 12.003
    endloop
  endfacet
  facet normal 1 0 0
    outer loop
      vertex 3 -38.753 13.497
      vertex 3 -40 0.25
      vertex 3 -28.248 13.497
    endloop
  endfacet
  facet normal 1 0 0
    outer loop
      vertex 3 -27 25.25
      vertex 3 -28.248 13.497
      vertex 3 -27 0.25
    endloop
  endfacet
  facet normal 0 1 0
    outer loop
      vertex 3 -27 25.25
      vertex 3 -27 0.25
      vertex 1.753 -27 12.003
    endloop
  endfacet
  facet normal 0 1 0
    outer loop
      vertex 3 -27 25.25
      vertex 1.753 -27 12.003
      vertex -10 -27 25.25
    endloop
  endfacet
  facet normal 0 1 0
    outer loop
      vertex -8.753 -27 1.497
      vertex -10 -27 0.25
      vertex -8.753 -27 12.003
    endloop
  endfacet
  facet normal -1 0 0
    outer loop
      vertex 1.753 -27 1.497
      vertex 1.753 -40 1.497
      vertex 1.753 -40 12.003
    endloop
  endfacet
  facet normal -1 0 0
    outer loop
      vertex 1.753 -27 1.497
      vertex 1.753 -40 12.003
      vertex 1.753 -27 12.003
    endloop
  endfacet
  facet normal 0 -1 0
    outer loop
      vertex -10 -40 25.25
      vertex -10 -40 0.25
      vertex -8.753 -40 12.003
    endloop
  endfacet
  facet normal 0 -1 0
    outer loop
      vertex -10 -40 25.25
      vertex -8.753 -40 12.003
      vertex 1.753 -40 12.003
    endloop
  endfacet
  facet normal 0 -1 0
    outer loop
      vertex 3 -40 25.25
      vertex -10 -40 25.25
      vertex 1.753 -40 12.003
    endloop
  endfacet
  facet normal 0 1 0
    outer loop
      vertex 3 -27 0.25
      vertex -10 -27 0.25
      vertex 1.753 -27 1.497
    endloop
  endfacet
  facet normal 0 1 0
    outer loop
      vertex -8.753 -27 1.497
      vertex 1.753 -27 1.497
      vertex -10 -27 0.25
    endloop
  endfacet
  facet normal 1 0 0
    outer loop
      vertex 3 -27 0.25
      vertex 3 -28.248 13.497
      vertex 3 -40 0.25
    endloop
  endfacet
  facet normal 0 0 -1
    outer loop
      vertex -8.753 -40 12.003
      vertex -8.753 -27 12.003
      vertex 1.753 -27 12.003
    endloop
  endfacet
  facet normal 0 0 -1
    outer loop
      vertex -8.753 -40 12.003
      vertex 1.753 -27 12.003
      vertex 1.753 -40 12.003
    endloop
  endfacet
  facet normal 0 -1 0
    outer loop
      vertex -8.753 -40 1.497
      vertex -10 -40 0.25
      vertex 1.753 -40 1.497
    endloop
  endfacet
  facet normal 0 -1 0
    outer loop
      vertex -10 -40 0.25
      vertex 3 -40 0.25
      vertex 1.753 -40 1.497
    endloop
  endfacet
  facet normal 0 -1 0
    outer loop
      vertex 3 -40 25.25
      vertex 1.753 -40 12.003
      vertex 3 -40 0.25
    endloop
  endfacet
  facet normal 0 0 1
    outer loop
      vertex 1.753 -40 1.497
      vertex 1.753 -27 1.497
      vertex -8.753 -27 1.497
    endloop
  endfacet
  facet normal 0 0 1
    outer loop
      vertex 1.753 -40 1.497
      vertex -8.753 -27 1.497
      vertex -8.753 -40 1.497
    endloop
  endfacet
  facet normal -1 0 0
    outer loop
      vertex -10 -40 25.25
      vertex -10 -38.753 13.497
      vertex -10 -40 0.25
    endloop
  endfacet
  facet normal -1 0 0
    outer loop
      vertex -10 -40 0.25
      vertex -10 -28.248 13.497
      vertex -10 -27 0.25
    endloop
  endfacet
endsolid stl_item0
