solid stl_item0
  facet normal 0 0 1
    outer loop
      vertex -37 -38 20.25
      vertex -37 -40 20.25
      vertex -30 -38 20.25
    endloop
  endfacet
  facet normal 0 0 1
    outer loop
      vertex -28.5 -40 20.25
      vertex -30 -38 20.25
      vertex -37 -40 20.25
    endloop
  endfacet
  facet normal 0 -1 0
    outer loop
      vertex 14 -21.998 15.76885
      vertex 13.997 -21.998 15.75
      vertex 14 -21.998 15.73115
    endloop
  endfacet
  facet normal 0 -1 0
    outer loop
      vertex -33.273 -40 13.37
      vertex -33.971 -40 13.725
      vertex -35.003 -40 7.253
    endloop
  endfacet
  facet normal 0 1 0
    outer loop
      vertex 18.525 -38 6.221
      vertex 18.88 -38 14.977
      vertex 18.88 -38 5.523
    endloop
  endfacet
  facet normal 0 1 0
    outer loop
      vertex 14 -38 13.247
      vertex 15.029 -38 13.725
      vertex 16.5 -38 7.252
    endloop
  endfacet
  facet normal 0 0 1
    outer loop
      vertex 21 -40 20.25
      vertex 21 -38 20.25
      vertex 13 -38 20.25
    endloop
  endfacet
  facet normal 0 0 1
    outer loop
      vertex 21 -40 20.25
      vertex 13 -38 20.25
      vertex 13 -40 20.25
    endloop
  endfacet
  facet normal 0 1 0
    outer loop
      vertex -33.273 -38 18.13
      vertex -37 -38 20.25
      vertex -32.5 -38 18.253
    endloop
  endfacet
  facet normal 0 1 0
    outer loop
      vertex -30 -38 20.25
      vertex -32.5 -38 18.253
      vertex -37 -38 20.25
    endloop
  endfacet
  facet normal 0 1 0
    outer loop
      vertex -31.727 -38 7.13
      vertex -32.5 -38 7.253
      vertex -32.5 -38 13.247
    endloop
  endfacet
  facet normal 0 1 0
    outer loop
      vertex -32.5 -38 7.253
      vertex -33.273 -38 7.13
      vertex -32.5 -38 13.247
    endloop
  endfacet
  facet normal 0 1 0
    outer loop
      vertex -35.003 -38 13.247
      vertex -33.971 -38 13.725
      vertex -33.273 -38 7.13
    endloop
  endfacet
  facet normal 0 1 0
    outer loop
      vertex -34.525 -38 6.221
      vertex -35.003 -38 13.247
      vertex -33.971 -38 6.775
    endloop
  endfacet
  facet normal 0 1 0
    outer loop
      vertex -33.273 -38 7.13
      vertex -33.971 -38 6.775
      vertex -35.003 -38 13.247
    endloop
  endfacet
  facet normal 0 1 0
    outer loop
      vertex -30 -38 0
      vertex -37 -38 0
      vertex -32.5 -38 2.247
    endloop
  endfacet
  facet normal -1 0 0
    outer loop
      vertex -30 -21.998 4.76267
      vertex -30 -23.003 5.247
      vertex -30 -13.998 5.247
    endloop
  endfacet
  facet normal 0 1 0
    outer loop
      vertex -37 -38 20.25
      vertex -35.003 -38 15.75
      vertex -34.88 -38 14.977
    endloop
  endfacet
  facet normal 0 1 0
    outer loop
      vertex -37 -38 20.25
      vertex -34.88 -38 14.977
      vertex -35.003 -38 13.247
    endloop
  endfacet
  facet normal 0 1 0
    outer loop
      vertex -35.003 -38 13.247
      vertex -34.88 -38 5.523
      vertex -37 -38 20.25
    endloop
  endfacet
  facet normal 0 1 0
    outer loop
      vertex -33.971 -38 2.725
      vertex -33.273 -38 2.37
      vertex -37 -38 0
    endloop
  endfacet
  facet normal 0 1 0
    outer loop
      vertex -37 -38 20.25
      vertex -35.003 -38 4.75
      vertex -37 -38 0
    endloop
  endfacet
  facet normal 0.98758 0 -0.15714
    outer loop
      vertex 14 -21.998 4.76885
      vertex 14 -38 4.76885
      vertex 13.997 -21.998 4.75
    endloop
  endfacet
  facet normal 0.98758 0 -0.15714
    outer loop
      vertex 13.997 -40 4.75
      vertex 13.997 -21.998 4.75
      vertex 14 -38 4.76885
    endloop
  endfacet
  facet normal -1 0 0
    outer loop
      vertex -37 -38 0
      vertex -37 -40 0
      vertex -37 -40 20.25
    endloop
  endfacet
  facet normal -1 0 0
    outer loop
      vertex -37 -38 0
      vertex -37 -40 20.25
      vertex -37 -38 20.25
    endloop
  endfacet
  facet normal 0.98758 0 0.15714
    outer loop
      vertex 14 -21.998 4.73115
      vertex 13.997 -21.998 4.75
      vertex 14 -38 4.73115
    endloop
  endfacet
  facet normal 0.89134 0 0.45333
    outer loop
      vertex -34.88 -38 3.977
      vertex -34.88 -40 3.977
      vertex -34.525 -40 3.279
    endloop
  endfacet
  facet normal 0.89134 0 0.45333
    outer loop
      vertex -34.88 -38 3.977
      vertex -34.525 -40 3.279
      vertex -34.525 -38 3.279
    endloop
  endfacet
  facet normal 0.70711 0 0.70711
    outer loop
      vertex -33.971 -40 2.725
      vertex -33.971 -38 2.725
      vertex -34.525 -38 3.279
    endloop
  endfacet
  facet normal 0.70711 0 0.70711
    outer loop
      vertex -33.971 -40 2.725
      vertex -34.525 -38 3.279
      vertex -34.525 -40 3.279
    endloop
  endfacet
  facet normal 0.45333 0 0.89134
    outer loop
      vertex -33.273 -40 2.37
      vertex -33.273 -38 2.37
      vertex -33.971 -38 2.725
    endloop
  endfacet
  facet normal 0.45333 0 0.89134
    outer loop
      vertex -33.273 -40 2.37
      vertex -33.971 -38 2.725
      vertex -33.971 -40 2.725
    endloop
  endfacet
  facet normal 0.15714 0 0.98758
    outer loop
      vertex -33.273 -38 2.37
      vertex -33.273 -40 2.37
      vertex -32.5 -40 2.247
    endloop
  endfacet
  facet normal 0.15714 0 0.98758
    outer loop
      vertex -33.273 -38 2.37
      vertex -32.5 -40 2.247
      vertex -32.5 -38 2.247
    endloop
  endfacet
  facet normal -0.15714 0 0.98758
    outer loop
      vertex -31.727 -40 2.37
      vertex -31.727 -38 2.37
      vertex -32.5 -38 2.247
    endloop
  endfacet
  facet normal -0.15714 0 0.98758
    outer loop
      vertex -31.727 -40 2.37
      vertex -32.5 -38 2.247
      vertex -32.5 -40 2.247
    endloop
  endfacet
  facet normal 0.98758 0 0.15714
    outer loop
      vertex 13.997 -40 4.75
      vertex 14 -38 4.73115
      vertex 13.997 -21.998 4.75
    endloop
  endfacet
  facet normal 0 -1 0
    outer loop
      vertex 12.5 -40 0
      vertex 13.997 -40 7.252
      vertex 12.5 -40 20
    endloop
  endfacet
  facet normal -0.45333 0 0.89134
    outer loop
      vertex -31.029 -40 2.725
      vertex -31.029 -38 2.725
      vertex -31.727 -38 2.37
    endloop
  endfacet
  facet normal -0.45333 0 0.89134
    outer loop
      vertex -31.029 -40 2.725
      vertex -31.727 -38 2.37
      vertex -31.727 -40 2.37
    endloop
  endfacet
  facet normal -0.70711 0 0.70711
    outer loop
      vertex -30.475 -40 3.279
      vertex -30.475 -38 3.279
      vertex -31.029 -38 2.725
    endloop
  endfacet
  facet normal -0.70711 0 0.70711
    outer loop
      vertex -30.475 -40 3.279
      vertex -31.029 -38 2.725
      vertex -31.029 -40 2.725
    endloop
  endfacet
  facet normal 0 -1 0
    outer loop
      vertex 14 -21.998 4.76885
      vertex 13.997 -21.998 4.75
      vertex 14 -21.998 4.73115
    endloop
  endfacet
  facet normal 0 -1 0
    outer loop
      vertex 15.029 -40 2.725
      vertex 14.475 -40 3.279
      vertex 12.5 -40 0
    endloop
  endfacet
  facet normal 0 -1 0
    outer loop
      vertex 13.997 -40 7.252
      vertex 12.5 -40 0
      vertex 13.997 -40 4.75
    endloop
  endfacet
  facet normal -0.89134 0 0.45333
    outer loop
      vertex -30.12 -40 3.977
      vertex -30.12 -38 3.977
      vertex -30.475 -38 3.279
    endloop
  endfacet
  facet normal -0.89134 0 0.45333
    outer loop
      vertex -30.12 -40 3.977
      vertex -30.475 -38 3.279
      vertex -30.475 -40 3.279
    endloop
  endfacet
  facet normal 0 -1 0
    outer loop
      vertex 14 -13.998 15.252
      vertex 12.5 -13.998 5.247
      vertex 14 -13.998 5.247
    endloop
  endfacet
  facet normal 0 -1 0
    outer loop
      vertex 14.12 -40 16.523
      vertex 14.475 -40 17.221
      vertex 12.5 -40 20
    endloop
  endfacet
  facet normal 0 -1 0
    outer loop
      vertex 14 -13.998 15.252
      vertex 12.5 -13.998 15.252
      vertex 12.5 -13.998 5.247
    endloop
  endfacet
  facet normal 0.98758 0 0.15714
    outer loop
      vertex -35.003 -38 4.75
      vertex -35.003 -40 4.75
      vertex -34.88 -38 3.977
    endloop
  endfacet
  facet normal 0.98758 0 0.15714
    outer loop
      vertex -34.88 -40 3.977
      vertex -34.88 -38 3.977
      vertex -35.003 -40 4.75
    endloop
  endfacet
  facet normal -0.98777 0 0.1559
    outer loop
      vertex -30.12 -38 3.977
      vertex -30.12 -40 3.977
      vertex -30 -38 4.73733
    endloop
  endfacet
  facet normal -1 0 0
    outer loop
      vertex -30 -38 15.76267
      vertex -30 -38 20.25
      vertex -30 -21.998 15.76267
    endloop
  endfacet
  facet normal 0 0 1
    outer loop
      vertex -28.5 -40 20.25
      vertex -28.5 -11.5 20.25
      vertex -30 -38 20.25
    endloop
  endfacet
  facet normal 0 0 1
    outer loop
      vertex -30 -10 20.25
      vertex -30 -38 20.25
      vertex -28.5 -11.5 20.25
    endloop
  endfacet
  facet normal -0.98777 0 -0.1559
    outer loop
      vertex -30.12 -40 5.523
      vertex -30.12 -38 5.523
      vertex -30 -38 4.76267
    endloop
  endfacet
  facet normal -0.98777 0 -0.1559
    outer loop
      vertex -30.12 -40 5.523
      vertex -30 -38 4.76267
      vertex -29.998 -40 4.75
    endloop
  endfacet
  facet normal 0 0 1
    outer loop
      vertex 13.5 -10 20.25
      vertex -30 -10 20.25
      vertex -28.5 -11.5 20.25
    endloop
  endfacet
  facet normal 0 0 1
    outer loop
      vertex 13.5 -11.5 20.25
      vertex 13.5 -10 20.25
      vertex -28.5 -11.5 20.25
    endloop
  endfacet
  facet normal 0 0 -1
    outer loop
      vertex 14 1.8 0
      vertex 14 0.55 0
      vertex -6 0.55 0
    endloop
  endfacet
  facet normal 0 0 -1
    outer loop
      vertex 14 1.8 0
      vertex -6 0.55 0
      vertex -6 1.8 0
    endloop
  endfacet
  facet normal 0 0 -1
    outer loop
      vertex -37 -40 0
      vertex -37 -38 0
      vertex -30 -38 0
    endloop
  endfacet
  facet normal 0 0 -1
    outer loop
      vertex 21 -38 0
      vertex 21 -40 0
      vertex 14 -38 0
    endloop
  endfacet
  facet normal -0.89134 0 -0.45333
    outer loop
      vertex -30.475 -40 6.221
      vertex -30.475 -38 6.221
      vertex -30.12 -38 5.523
    endloop
  endfacet
  facet normal -0.89134 0 -0.45333
    outer loop
      vertex -30.475 -40 6.221
      vertex -30.12 -38 5.523
      vertex -30.12 -40 5.523
    endloop
  endfacet
  facet normal 0 0 -1
    outer loop
      vertex 21 -40 0
      vertex 12.5 -40 0
      vertex 14 -38 0
    endloop
  endfacet
  facet normal 0 0 -1
    outer loop
      vertex 12.5 -11.5 0
      vertex 14 -38 0
      vertex 12.5 -40 0
    endloop
  endfacet
  facet normal -0.70711 0 -0.70711
    outer loop
      vertex -31.029 -40 6.775
      vertex -31.029 -38 6.775
      vertex -30.475 -38 6.221
    endloop
  endfacet
  facet normal -0.70711 0 -0.70711
    outer loop
      vertex -31.029 -40 6.775
      vertex -30.475 -38 6.221
      vertex -30.475 -40 6.221
    endloop
  endfacet
  facet normal 0 0 -1
    outer loop
      vertex -37 -40 0
      vertex -30 -38 0
      vertex -28.5 -40 0
    endloop
  endfacet
  facet normal 0 0 -1
    outer loop
      vertex -28.5 -11.5 0
      vertex -28.5 -40 0
      vertex -30 -38 0
    endloop
  endfacet
  facet normal 0 0 -1
    outer loop
      vertex -28.5 -11.5 0
      vertex -30 -38 0
      vertex -30 -10 0
    endloop
  endfacet
  facet normal 0 -1 0
    outer loop
      vertex -31.029 -40 17.775
      vertex -30.475 -40 17.221
      vertex -28.5 -40 20.25
    endloop
  endfacet
  facet normal -0.45333 0 -0.89134
    outer loop
      vertex -31.727 -40 7.13
      vertex -31.727 -38 7.13
      vertex -31.029 -38 6.775
    endloop
  endfacet
  facet normal -0.45333 0 -0.89134
    outer loop
      vertex -31.727 -40 7.13
      vertex -31.029 -38 6.775
      vertex -31.029 -40 6.775
    endloop
  endfacet
  facet normal 0 0 -1
    outer loop
      vertex 14 -38 0
      vertex 12.5 -11.5 0
      vertex 14 -10 0
    endloop
  endfacet
  facet normal 0 -1 0
    outer loop
      vertex -31.029 -40 17.775
      vertex -28.5 -40 20.25
      vertex -31.727 -40 18.13
    endloop
  endfacet
  facet normal -0.15714 0 -0.98758
    outer loop
      vertex -32.5 -40 7.253
      vertex -32.5 -38 7.253
      vertex -31.727 -38 7.13
    endloop
  endfacet
  facet normal -0.15714 0 -0.98758
    outer loop
      vertex -32.5 -40 7.253
      vertex -31.727 -38 7.13
      vertex -31.727 -40 7.13
    endloop
  endfacet
  facet normal 0 0 -1
    outer loop
      vertex -30 -10 0
      vertex 14 -10 0
      vertex 12.5 -11.5 0
    endloop
  endfacet
  facet normal 0 0 -1
    outer loop
      vertex -30 -10 0
      vertex 12.5 -11.5 0
      vertex -28.5 -11.5 0
    endloop
  endfacet
  facet normal 0.15714 0 -0.98758
    outer loop
      vertex -33.273 -40 7.13
      vertex -33.273 -38 7.13
      vertex -32.5 -38 7.253
    endloop
  endfacet
  facet normal 0.15714 0 -0.98758
    outer loop
      vertex -33.273 -40 7.13
      vertex -32.5 -38 7.253
      vertex -32.5 -40 7.253
    endloop
  endfacet
  facet normal 0 -1 0
    outer loop
      vertex -6 0.55 3.5
      vertex -6 0.55 0
      vertex 14 0.55 0
    endloop
  endfacet
  facet normal 0 -1 0
    outer loop
      vertex -6 0.55 3.5
      vertex 14 0.55 0
      vertex 14 0.55 3.5
    endloop
  endfacet
  facet normal -1 0 0
    outer loop
      vertex -6 1.8 0
      vertex -6 0.55 0
      vertex -6 0.55 3.5
    endloop
  endfacet
  facet normal 0.45333 0 -0.89134
    outer loop
      vertex -33.971 -40 6.775
      vertex -33.971 -38 6.775
      vertex -33.273 -38 7.13
    endloop
  endfacet
  facet normal 0.45333 0 -0.89134
    outer loop
      vertex -33.971 -40 6.775
      vertex -33.273 -38 7.13
      vertex -33.273 -40 7.13
    endloop
  endfacet
  facet normal 1 0 0
    outer loop
      vertex 14 1.8 0
      vertex 14 0.55 3.5
      vertex 14 0.55 0
    endloop
  endfacet
  facet normal 0 -1 0
    outer loop
      vertex -33.971 -40 17.775
      vertex -37 -40 20.25
      vertex -34.525 -40 17.221
    endloop
  endfacet
  facet normal 0.70711 0 -0.70711
    outer loop
      vertex -34.525 -40 6.221
      vertex -34.525 -38 6.221
      vertex -33.971 -38 6.775
    endloop
  endfacet
  facet normal 0.70711 0 -0.70711
    outer loop
      vertex -34.525 -40 6.221
      vertex -33.971 -38 6.775
      vertex -33.971 -40 6.775
    endloop
  endfacet
  facet normal 0 0 -1
    outer loop
      vertex -6 -10 3.5
      vertex -6 0.55 3.5
      vertex 14 -10 3.5
    endloop
  endfacet
  facet normal 0 0 -1
    outer loop
      vertex 14 0.55 3.5
      vertex 14 -10 3.5
      vertex -6 0.55 3.5
    endloop
  endfacet
  facet normal 0 -1 0
    outer loop
      vertex -34.88 -40 16.523
      vertex -34.525 -40 17.221
      vertex -37 -40 20.25
    endloop
  endfacet
  facet normal 0 0 1
    outer loop
      vertex -6 -10 16.5
      vertex 14 -10 16.5
      vertex -6 1.75 16.5
    endloop
  endfacet
  facet normal 0 0 1
    outer loop
      vertex 14 1.75 16.5
      vertex -6 1.75 16.5
      vertex 14 -10 16.5
    endloop
  endfacet
  facet normal 0.89134 0 -0.45333
    outer loop
      vertex -34.88 -40 5.523
      vertex -34.88 -38 5.523
      vertex -34.525 -38 6.221
    endloop
  endfacet
  facet normal 0.89134 0 -0.45333
    outer loop
      vertex -34.88 -40 5.523
      vertex -34.525 -38 6.221
      vertex -34.525 -40 6.221
    endloop
  endfacet
  facet normal 1 0 0
    outer loop
      vertex 14 1.75 16
      vertex 14 0.502 4.748
      vertex 14 1.8 16
    endloop
  endfacet
  facet normal 1 0 0
    outer loop
      vertex 14 1.8 16
      vertex 14 0.502 4.748
      vertex 14 1.8 0
    endloop
  endfacet
  facet normal 1 0 0
    outer loop
      vertex 14 -21.998 15.73115
      vertex 14 -23.003 15.252
      vertex 14 -13.998 15.252
    endloop
  endfacet
  facet normal 0 -1 0
    outer loop
      vertex -33.273 -40 18.13
      vertex -32.5 -40 18.253
      vertex -37 -40 20.25
    endloop
  endfacet
  facet normal 0 -1 0
    outer loop
      vertex -28.5 -40 20.25
      vertex -37 -40 20.25
      vertex -32.5 -40 18.253
    endloop
  endfacet
  facet normal 0 -1 0
    outer loop
      vertex -32.5 -40 18.253
      vertex -31.727 -40 18.13
      vertex -28.5 -40 20.25
    endloop
  endfacet
  facet normal 1 0 0
    outer loop
      vertex 14 0.502 4.748
      vertex 14 1.75 16
      vertex 14 0.502 15.253
    endloop
  endfacet
  facet normal 0.98758 0 -0.15714
    outer loop
      vertex -35.003 -40 4.75
      vertex -35.003 -38 4.75
      vertex -34.88 -38 5.523
    endloop
  endfacet
  facet normal 0.98758 0 -0.15714
    outer loop
      vertex -35.003 -40 4.75
      vertex -34.88 -38 5.523
      vertex -34.88 -40 5.523
    endloop
  endfacet
  facet normal 1 0 0
    outer loop
      vertex 14 -10 16.5
      vertex 14 -10 15.253
      vertex 14 0.502 15.253
    endloop
  endfacet
  facet normal 1 0 0
    outer loop
      vertex 14 1.75 16
      vertex 14 1.75 16.5
      vertex 14 0.502 15.253
    endloop
  endfacet
  facet normal 1 0 0
    outer loop
      vertex 14 -10 16.5
      vertex 14 0.502 15.253
      vertex 14 1.75 16.5
    endloop
  endfacet
  facet normal 0.98758 0 0.15714
    outer loop
      vertex -34.88 -40 14.977
      vertex -34.88 -38 14.977
      vertex -35.003 -38 15.75
    endloop
  endfacet
  facet normal 0.98758 0 0.15714
    outer loop
      vertex -34.88 -40 14.977
      vertex -35.003 -38 15.75
      vertex -35.003 -40 15.75
    endloop
  endfacet
  facet normal 0 -1 0
    outer loop
      vertex -33.273 -40 13.37
      vertex -35.003 -40 7.253
      vertex -32.5 -40 13.247
    endloop
  endfacet
  facet normal 0 -1 0
    outer loop
      vertex -33.971 -40 6.775
      vertex -33.273 -40 7.13
      vertex -32.5 -40 13.247
    endloop
  endfacet
  facet normal 0 -1 0
    outer loop
      vertex -33.273 -40 7.13
      vertex -32.5 -40 7.253
      vertex -32.5 -40 13.247
    endloop
  endfacet
  facet normal 0 -1 0
    outer loop
      vertex -32.5 -40 7.253
      vertex -31.727 -40 7.13
      vertex -32.5 -40 13.247
    endloop
  endfacet
  facet normal 0 -1 0
    outer loop
      vertex -31.727 -40 13.37
      vertex -32.5 -40 13.247
      vertex -31.727 -40 7.13
    endloop
  endfacet
  facet normal 0 -1 0
    outer loop
      vertex -31.727 -40 7.13
      vertex -31.029 -40 6.775
      vertex -31.727 -40 13.37
    endloop
  endfacet
  facet normal 1 0 0
    outer loop
      vertex 14 -10 4.748
      vertex 14 -10 3.5
      vertex 14 0.502 4.748
    endloop
  endfacet
  facet normal 1 0 0
    outer loop
      vertex 14 -10 3.5
      vertex 14 0.55 3.5
      vertex 14 0.502 4.748
    endloop
  endfacet
  facet normal 1 0 0
    outer loop
      vertex 14 0.55 3.5
      vertex 14 1.8 0
      vertex 14 0.502 4.748
    endloop
  endfacet
  facet normal 0.89134 0 0.45333
    outer loop
      vertex -34.525 -40 14.279
      vertex -34.525 -38 14.279
      vertex -34.88 -38 14.977
    endloop
  endfacet
  facet normal 0.89134 0 0.45333
    outer loop
      vertex -34.525 -40 14.279
      vertex -34.88 -38 14.977
      vertex -34.88 -40 14.977
    endloop
  endfacet
  facet normal 0 1 0
    outer loop
      vertex 12.5 -23.003 15.252
      vertex 14 -23.003 5.247
      vertex 12.5 -23.003 5.247
    endloop
  endfacet
  facet normal 0 -1 0
    outer loop
      vertex -37 -40 0
      vertex -28.5 -40 0
      vertex -32.5 -40 2.247
    endloop
  endfacet
  facet normal 0 -1 0
    outer loop
      vertex -32.5 -40 2.247
      vertex -33.273 -40 2.37
      vertex -37 -40 0
    endloop
  endfacet
  facet normal 0 0 1
    outer loop
      vertex 12.5 -23.003 5.247
      vertex 14 -13.998 5.247
      vertex 12.5 -13.998 5.247
    endloop
  endfacet
  facet normal 0 0 1
    outer loop
      vertex 14 -23.003 5.247
      vertex 14 -13.998 5.247
      vertex 12.5 -23.003 5.247
    endloop
  endfacet
  facet normal 0.70711 0 0.70711
    outer loop
      vertex -33.971 -40 13.725
      vertex -33.971 -38 13.725
      vertex -34.525 -38 14.279
    endloop
  endfacet
  facet normal 0.70711 0 0.70711
    outer loop
      vertex -33.971 -40 13.725
      vertex -34.525 -38 14.279
      vertex -34.525 -40 14.279
    endloop
  endfacet
  facet normal 0 -1 0
    outer loop
      vertex -33.971 -40 2.725
      vertex -34.525 -40 3.279
      vertex -37 -40 0
    endloop
  endfacet
  facet normal 0 -1 0
    outer loop
      vertex -34.525 -40 3.279
      vertex -34.88 -40 3.977
      vertex -37 -40 0
    endloop
  endfacet
  facet normal 0 -1 0
    outer loop
      vertex -35.003 -40 4.75
      vertex -34.88 -40 5.523
      vertex -37 -40 0
    endloop
  endfacet
  facet normal 0 -1 0
    outer loop
      vertex -37 -40 20.25
      vertex -37 -40 0
      vertex -35.003 -40 7.253
    endloop
  endfacet
  facet normal 0 -1 0
    outer loop
      vertex -37 -40 20.25
      vertex -35.003 -40 7.253
      vertex -34.88 -40 14.977
    endloop
  endfacet
  facet normal 0 -1 0
    outer loop
      vertex -37 -40 20.25
      vertex -34.88 -40 14.977
      vertex -35.003 -40 15.75
    endloop
  endfacet
  facet normal 0 -1 0
    outer loop
      vertex -37 -40 20.25
      vertex -35.003 -40 15.75
      vertex -34.88 -40 16.523
    endloop
  endfacet
  facet normal 0 -1 0
    outer loop
      vertex -33.971 -40 17.775
      vertex -33.273 -40 18.13
      vertex -37 -40 20.25
    endloop
  endfacet
  facet normal 0 1 0
    outer loop
      vertex 18.88 -38 3.977
      vertex 21 -38 0
      vertex 18.525 -38 3.279
    endloop
  endfacet
  facet normal 1 0 0
    outer loop
      vertex -28.5 -11.5 0
      vertex -28.5 -11.5 20.25
      vertex -28.5 -13.998 5.247
    endloop
  endfacet
  facet normal 0 -1 0
    outer loop
      vertex 13 -40 20
      vertex 15.727 -40 18.13
      vertex 13 -40 20.25
    endloop
  endfacet
  facet normal 0 1 0
    outer loop
      vertex 19.003 -38 4.75
      vertex 21 -38 0
      vertex 18.88 -38 3.977
    endloop
  endfacet
  facet normal 0 1 0
    outer loop
      vertex 17.971 -38 2.725
      vertex 18.525 -38 3.279
      vertex 21 -38 0
    endloop
  endfacet
  facet normal 1 0 0
    outer loop
      vertex -28.5 -40 5.247
      vertex -28.5 -23.003 5.247
      vertex -28.5 -23.003 15.252
    endloop
  endfacet
  facet normal 1 0 0
    outer loop
      vertex -28.5 -40 5.247
      vertex -28.5 -23.003 15.252
      vertex -28.5 -40 15.252
    endloop
  endfacet
  facet normal 1 0 0
    outer loop
      vertex -28.5 -13.998 5.247
      vertex -28.5 -23.003 5.247
      vertex -28.5 -11.5 0
    endloop
  endfacet
  facet normal 1 0 0
    outer loop
      vertex -28.5 -40 0
      vertex -28.5 -11.5 0
      vertex -28.5 -23.003 5.247
    endloop
  endfacet
  facet normal 1 0 0
    outer loop
      vertex -28.5 -40 0
      vertex -28.5 -23.003 5.247
      vertex -28.5 -40 5.247
    endloop
  endfacet
  facet normal 1 0 0
    outer loop
      vertex 14 -21.998 15.73115
      vertex 14 -13.998 15.252
      vertex 14 -21.998 15.76885
    endloop
  endfacet
  facet normal 1 0 0
    outer loop
      vertex 14 -13.998 15.252
      vertex 14 -10 20
      vertex 14 -21.998 15.76885
    endloop
  endfacet
  facet normal 1 0 0
    outer loop
      vertex 14 -38 20
      vertex 14 -21.998 15.76885
      vertex 14 -10 20
    endloop
  endfacet
  facet normal 1 0 0
    outer loop
      vertex -28.5 -40 20.25
      vertex -28.5 -23.003 15.252
      vertex -28.5 -11.5 20.25
    endloop
  endfacet
  facet normal 1 0 0
    outer loop
      vertex -28.5 -40 15.252
      vertex -28.5 -23.003 15.252
      vertex -28.5 -40 20.25
    endloop
  endfacet
  facet normal 0.45333 0 0.89134
    outer loop
      vertex -33.273 -40 13.37
      vertex -33.273 -38 13.37
      vertex -33.971 -38 13.725
    endloop
  endfacet
  facet normal 0.45333 0 0.89134
    outer loop
      vertex -33.273 -40 13.37
      vertex -33.971 -38 13.725
      vertex -33.971 -40 13.725
    endloop
  endfacet
  facet normal 0 -1 0
    outer loop
      vertex 13 -40 20
      vertex 14.475 -40 17.221
      vertex 15.029 -40 17.775
    endloop
  endfacet
  facet normal 0.15714 0 0.98758
    outer loop
      vertex -33.273 -38 13.37
      vertex -33.273 -40 13.37
      vertex -32.5 -40 13.247
    endloop
  endfacet
  facet normal 0.15714 0 0.98758
    outer loop
      vertex -33.273 -38 13.37
      vertex -32.5 -40 13.247
      vertex -32.5 -38 13.247
    endloop
  endfacet
  facet normal 1 0 0
    outer loop
      vertex -28.5 -13.998 15.252
      vertex -28.5 -11.5 20.25
      vertex -28.5 -23.003 15.252
    endloop
  endfacet
  facet normal 1 0 0
    outer loop
      vertex -28.5 -13.998 15.252
      vertex -28.5 -13.998 5.247
      vertex -28.5 -11.5 20.25
    endloop
  endfacet
  facet normal -0.15714 0 0.98758
    outer loop
      vertex -31.727 -40 13.37
      vertex -31.727 -38 13.37
      vertex -32.5 -38 13.247
    endloop
  endfacet
  facet normal -0.15714 0 0.98758
    outer loop
      vertex -31.727 -40 13.37
      vertex -32.5 -38 13.247
      vertex -32.5 -40 13.247
    endloop
  endfacet
  facet normal 0 -1 0
    outer loop
      vertex 13 -40 20
      vertex 12.5 -40 20
      vertex 14.475 -40 17.221
    endloop
  endfacet
  facet normal -0.45333 0 0.89134
    outer loop
      vertex -31.029 -40 13.725
      vertex -31.029 -38 13.725
      vertex -31.727 -38 13.37
    endloop
  endfacet
  facet normal -0.45333 0 0.89134
    outer loop
      vertex -31.029 -40 13.725
      vertex -31.727 -38 13.37
      vertex -31.727 -40 13.37
    endloop
  endfacet
  facet normal -0.98777 0 0.1559
    outer loop
      vertex -30.12 -40 3.977
      vertex -29.998 -40 4.75
      vertex -30 -38 4.73733
    endloop
  endfacet
  facet normal -0.70711 0 0.70711
    outer loop
      vertex -30.475 -40 14.279
      vertex -30.475 -38 14.279
      vertex -31.029 -38 13.725
    endloop
  endfacet
  facet normal -0.70711 0 0.70711
    outer loop
      vertex -30.475 -40 14.279
      vertex -31.029 -38 13.725
      vertex -31.029 -40 13.725
    endloop
  endfacet
  facet normal 0 -1 0
    outer loop
      vertex 13.997 -40 7.252
      vertex 14.475 -40 14.279
      vertex 14.12 -40 14.977
    endloop
  endfacet
  facet normal -0.89134 0 0.45333
    outer loop
      vertex -30.12 -40 14.977
      vertex -30.12 -38 14.977
      vertex -30.475 -38 14.279
    endloop
  endfacet
  facet normal -0.89134 0 0.45333
    outer loop
      vertex -30.12 -40 14.977
      vertex -30.475 -38 14.279
      vertex -30.475 -40 14.279
    endloop
  endfacet
  facet normal 0 -1 0
    outer loop
      vertex -30.12 -40 14.977
      vertex -30.475 -40 14.279
      vertex -28.5 -40 15.252
    endloop
  endfacet
  facet normal 0 1 0
    outer loop
      vertex 18.525 -38 14.279
      vertex 17.971 -38 6.775
      vertex 17.971 -38 13.725
    endloop
  endfacet
  facet normal 0 1 0
    outer loop
      vertex 17.273 -38 7.13
      vertex 16.5 -38 7.252
      vertex 16.5 -38 13.247
    endloop
  endfacet
  facet normal 0 1 0
    outer loop
      vertex 15.727 -38 13.37
      vertex 16.5 -38 13.247
      vertex 16.5 -38 7.252
    endloop
  endfacet
  facet normal 0 1 0
    outer loop
      vertex 14 -38 13.247
      vertex 16.5 -38 7.252
      vertex 15.727 -38 7.13
    endloop
  endfacet
  facet normal 0 1 0
    outer loop
      vertex 15.727 -38 7.13
      vertex 15.029 -38 6.775
      vertex 14 -38 13.247
    endloop
  endfacet
  facet normal -1 0 0
    outer loop
      vertex -6 1.75 16
      vertex -6 1.8 16
      vertex -6 0.55 3.5
    endloop
  endfacet
  facet normal -1 0 0
    outer loop
      vertex -6 1.8 0
      vertex -6 0.55 3.5
      vertex -6 1.8 16
    endloop
  endfacet
  facet normal 0 -1 0
    outer loop
      vertex 15.727 -40 13.37
      vertex 15.029 -40 13.725
      vertex 13.997 -40 7.252
    endloop
  endfacet
  facet normal 0 -1 0
    outer loop
      vertex 15.029 -40 13.725
      vertex 14.475 -40 14.279
      vertex 13.997 -40 7.252
    endloop
  endfacet
  facet normal -1 0 0
    outer loop
      vertex -6 -10 3.5
      vertex -6 -10 16.5
      vertex -6 0.55 3.5
    endloop
  endfacet
  facet normal -1 0 0
    outer loop
      vertex -6 1.75 16.5
      vertex -6 1.75 16
      vertex -6 -10 16.5
    endloop
  endfacet
  facet normal 0 1 0
    outer loop
      vertex 17.971 -38 6.775
      vertex 18.525 -38 14.279
      vertex 18.525 -38 6.221
    endloop
  endfacet
  facet normal -1 0 0
    outer loop
      vertex -6 1.75 16
      vertex -6 0.55 3.5
      vertex -6 -10 16.5
    endloop
  endfacet
  facet normal 0 0 1
    outer loop
      vertex 14 1.8 16
      vertex -6 1.8 16
      vertex -6 1.75 16
    endloop
  endfacet
  facet normal 0 0 1
    outer loop
      vertex 14 1.8 16
      vertex -6 1.75 16
      vertex 14 1.75 16
    endloop
  endfacet
  facet normal 0 1 0
    outer loop
      vertex 17.273 -38 2.37
      vertex 21 -38 0
      vertex 16.5 -38 2.247
    endloop
  endfacet
  facet normal 0 1 0
    outer loop
      vertex 17.273 -38 2.37
      vertex 17.971 -38 2.725
      vertex 21 -38 0
    endloop
  endfacet
  facet normal 0 1 0
    outer loop
      vertex 14 -38 0
      vertex 16.5 -38 2.247
      vertex 21 -38 0
    endloop
  endfacet
  facet normal 0 1 0
    outer loop
      vertex 14 1.8 16
      vertex 14 1.8 0
      vertex -6 1.8 0
    endloop
  endfacet
  facet normal 0 1 0
    outer loop
      vertex 14 1.8 16
      vertex -6 1.8 0
      vertex -6 1.8 16
    endloop
  endfacet
  facet normal 1 0 0
    outer loop
      vertex 21 -38 20.25
      vertex 21 -40 20.25
      vertex 21 -40 13.247
    endloop
  endfacet
  facet normal 1 0 0
    outer loop
      vertex 21 -38 20.25
      vertex 21 -40 13.247
      vertex 21 -38 0
    endloop
  endfacet
  facet normal 0 1 0
    outer loop
      vertex 14 1.75 16
      vertex -6 1.75 16
      vertex -6 1.75 16.5
    endloop
  endfacet
  facet normal 0 1 0
    outer loop
      vertex 14 1.75 16
      vertex -6 1.75 16.5
      vertex 14 1.75 16.5
    endloop
  endfacet
  facet normal 0 -1 0
    outer loop
      vertex 18.525 -40 17.221
      vertex 21 -40 20.25
      vertex 17.971 -40 17.775
    endloop
  endfacet
  facet normal 1 0 0
    outer loop
      vertex 21 -38 0
      vertex 21 -40 13.247
      vertex 21 -40 0
    endloop
  endfacet
  facet normal 0 -1 0
    outer loop
      vertex 14 0.502 15.253
      vertex -4.912 0.502 15.253
      vertex -4.912 0.502 4.748
    endloop
  endfacet
  facet normal 0 -1 0
    outer loop
      vertex 14 0.502 15.253
      vertex -4.912 0.502 4.748
      vertex 14 0.502 4.748
    endloop
  endfacet
  facet normal 1 0 0
    outer loop
      vertex -4.912 0.502 4.748
      vertex -4.912 0.502 15.253
      vertex -4.912 -10 15.253
    endloop
  endfacet
  facet normal 1 0 0
    outer loop
      vertex -4.912 0.502 4.748
      vertex -4.912 -10 15.253
      vertex -4.912 -10 4.748
    endloop
  endfacet
  facet normal 0 0 -1
    outer loop
      vertex 14 -10 15.253
      vertex -4.912 -10 15.253
      vertex 14 0.502 15.253
    endloop
  endfacet
  facet normal 0 0 -1
    outer loop
      vertex -4.912 0.502 15.253
      vertex 14 0.502 15.253
      vertex -4.912 -10 15.253
    endloop
  endfacet
  facet normal 0 0 1
    outer loop
      vertex -4.912 -10 4.748
      vertex 14 -10 4.748
      vertex -4.912 0.502 4.748
    endloop
  endfacet
  facet normal 0 0 1
    outer loop
      vertex 14 0.502 4.748
      vertex -4.912 0.502 4.748
      vertex 14 -10 4.748
    endloop
  endfacet
  facet normal 0.45333 0 -0.89134
    outer loop
      vertex 15.029 -40 17.775
      vertex 15.029 -38 17.775
      vertex 15.727 -38 18.13
    endloop
  endfacet
  facet normal 0.45333 0 -0.89134
    outer loop
      vertex 15.029 -40 17.775
      vertex 15.727 -38 18.13
      vertex 15.727 -40 18.13
    endloop
  endfacet
  facet normal 0 1 0
    outer loop
      vertex 13.5 -10 20.25
      vertex -6 -10 16.5
      vertex -30 -10 20.25
    endloop
  endfacet
  facet normal 0.70711 0 -0.70711
    outer loop
      vertex 14.475 -40 17.221
      vertex 14.475 -38 17.221
      vertex 15.029 -38 17.775
    endloop
  endfacet
  facet normal 0.70711 0 -0.70711
    outer loop
      vertex 14.475 -40 17.221
      vertex 15.029 -38 17.775
      vertex 15.029 -40 17.775
    endloop
  endfacet
  facet normal 0 1 0
    outer loop
      vertex -30 -10 0
      vertex -6 -10 3.5
      vertex 14 -10 0
    endloop
  endfacet
  facet normal 0 1 0
    outer loop
      vertex 14 -10 20
      vertex 14 -10 16.5
      vertex 13.5 -10 20
    endloop
  endfacet
  facet normal -0.98777 0 0.1559
    outer loop
      vertex -30.12 -38 14.977
      vertex -30.12 -40 14.977
      vertex -30 -38 15.73733
    endloop
  endfacet
  facet normal 0 1 0
    outer loop
      vertex 14 -10 4.748
      vertex -4.912 -10 15.253
      vertex 14 -10 15.253
    endloop
  endfacet
  facet normal 0 -1 0
    outer loop
      vertex 17.971 -40 13.725
      vertex 21 -40 13.247
      vertex 18.525 -40 14.279
    endloop
  endfacet
  facet normal 0 1 0
    outer loop
      vertex 14 -10 3.5
      vertex 14 -10 0
      vertex -6 -10 3.5
    endloop
  endfacet
  facet normal 0 -1 0
    outer loop
      vertex 18.88 -40 14.977
      vertex 18.525 -40 14.279
      vertex 21 -40 13.247
    endloop
  endfacet
  facet normal 0 -1 0
    outer loop
      vertex 19.003 -40 15.75
      vertex 18.88 -40 14.977
      vertex 21 -40 13.247
    endloop
  endfacet
  facet normal -0.98777 0 -0.1559
    outer loop
      vertex -29.998 -40 15.75
      vertex -30.12 -40 16.523
      vertex -30 -38 15.76267
    endloop
  endfacet
  facet normal 0 1 0
    outer loop
      vertex 14 -10 16.5
      vertex -6 -10 16.5
      vertex 13.5 -10 20
    endloop
  endfacet
  facet normal 0 1 0
    outer loop
      vertex 13.5 -10 20.25
      vertex 13.5 -10 20
      vertex -6 -10 16.5
    endloop
  endfacet
  facet normal 0 1 0
    outer loop
      vertex -30 -10 0
      vertex -30 -10 20.25
      vertex -6 -10 16.5
    endloop
  endfacet
  facet normal 0 1 0
    outer loop
      vertex -6 -10 3.5
      vertex -30 -10 0
      vertex -6 -10 16.5
    endloop
  endfacet
  facet normal 0.98758 0 -0.15714
    outer loop
      vertex -34.88 -38 16.523
      vertex -35.003 -40 15.75
      vertex -35.003 -38 15.75
    endloop
  endfacet
  facet normal 0 -1 0
    outer loop
      vertex 13 -40 20
      vertex 15.029 -40 17.775
      vertex 15.727 -40 18.13
    endloop
  endfacet
  facet normal 0 -1 0
    outer loop
      vertex 21 -40 20.25
      vertex 13 -40 20.25
      vertex 16.5 -40 18.252
    endloop
  endfacet
  facet normal 0 -1 0
    outer loop
      vertex 17.273 -40 18.13
      vertex 21 -40 20.25
      vertex 16.5 -40 18.252
    endloop
  endfacet
  facet normal 0 -1 0
    outer loop
      vertex 16.5 -40 18.252
      vertex 13 -40 20.25
      vertex 15.727 -40 18.13
    endloop
  endfacet
  facet normal 0 1 0
    outer loop
      vertex -4.912 -10 4.748
      vertex -4.912 -10 15.253
      vertex 14 -10 4.748
    endloop
  endfacet
  facet normal -0.98777 0 -0.1559
    outer loop
      vertex -30.12 -38 16.523
      vertex -30 -38 15.76267
      vertex -30.12 -40 16.523
    endloop
  endfacet
  facet normal 0 -1 0
    outer loop
      vertex -29.998 -40 15.75
      vertex -28.5 -40 15.252
      vertex -30.12 -40 16.523
    endloop
  endfacet
  facet normal 0 -1 0
    outer loop
      vertex -28.5 -40 20.25
      vertex -30.475 -40 17.221
      vertex -30.12 -40 16.523
    endloop
  endfacet
  facet normal 0 -1 0
    outer loop
      vertex -30.12 -40 16.523
      vertex -28.5 -40 15.252
      vertex -28.5 -40 20.25
    endloop
  endfacet
  facet normal -0.89134 0 -0.45333
    outer loop
      vertex -30.475 -40 17.221
      vertex -30.475 -38 17.221
      vertex -30.12 -38 16.523
    endloop
  endfacet
  facet normal -0.89134 0 -0.45333
    outer loop
      vertex -30.475 -40 17.221
      vertex -30.12 -38 16.523
      vertex -30.12 -40 16.523
    endloop
  endfacet
  facet normal -1 0 0
    outer loop
      vertex -30 -38 15.73733
      vertex -30 -21.998 15.73733
      vertex -30 -23.003 15.252
    endloop
  endfacet
  facet normal -1 0 0
    outer loop
      vertex -30 -13.998 15.252
      vertex -30 -23.003 15.252
      vertex -30 -21.998 15.73733
    endloop
  endfacet
  facet normal 0 -1 0
    outer loop
      vertex -35.003 -40 4.75
      vertex -37 -40 0
      vertex -34.88 -40 3.977
    endloop
  endfacet
  facet normal -0.70711 0 -0.70711
    outer loop
      vertex -31.029 -40 17.775
      vertex -31.029 -38 17.775
      vertex -30.475 -38 17.221
    endloop
  endfacet
  facet normal -0.70711 0 -0.70711
    outer loop
      vertex -31.029 -40 17.775
      vertex -30.475 -38 17.221
      vertex -30.475 -40 17.221
    endloop
  endfacet
  facet normal -0.45333 0 -0.89134
    outer loop
      vertex -31.727 -40 18.13
      vertex -31.727 -38 18.13
      vertex -31.029 -38 17.775
    endloop
  endfacet
  facet normal -0.45333 0 -0.89134
    outer loop
      vertex -31.727 -40 18.13
      vertex -31.029 -38 17.775
      vertex -31.029 -40 17.775
    endloop
  endfacet
  facet normal 0 -1 0
    outer loop
      vertex -31.029 -40 13.725
      vertex -28.5 -40 5.247
      vertex -30.475 -40 14.279
    endloop
  endfacet
  facet normal 0 -1 0
    outer loop
      vertex -30.475 -40 6.221
      vertex -30.12 -40 5.523
      vertex -28.5 -40 5.247
    endloop
  endfacet
  facet normal 0 -1 0
    outer loop
      vertex -28.5 -40 15.252
      vertex -30.475 -40 14.279
      vertex -28.5 -40 5.247
    endloop
  endfacet
  facet normal 0 -1 0
    outer loop
      vertex -33.971 -40 2.725
      vertex -37 -40 0
      vertex -33.273 -40 2.37
    endloop
  endfacet
  facet normal -0.15714 0 -0.98758
    outer loop
      vertex -32.5 -40 18.253
      vertex -32.5 -38 18.253
      vertex -31.727 -38 18.13
    endloop
  endfacet
  facet normal -0.15714 0 -0.98758
    outer loop
      vertex -32.5 -40 18.253
      vertex -31.727 -38 18.13
      vertex -31.727 -40 18.13
    endloop
  endfacet
  facet normal 0 -1 0
    outer loop
      vertex -29.998 -40 4.75
      vertex -30.12 -40 3.977
      vertex -28.5 -40 5.247
    endloop
  endfacet
  facet normal 0 -1 0
    outer loop
      vertex -30.12 -40 3.977
      vertex -28.5 -40 0
      vertex -28.5 -40 5.247
    endloop
  endfacet
  facet normal -1 0 0
    outer loop
      vertex -30 -38 20.25
      vertex -30 -10 20.25
      vertex -30 -21.998 15.76267
    endloop
  endfacet
  facet normal -1 0 0
    outer loop
      vertex -30 -13.998 15.252
      vertex -30 -21.998 15.76267
      vertex -30 -10 20.25
    endloop
  endfacet
  facet normal 0 -1 0
    outer loop
      vertex -28.5 -40 0
      vertex -31.727 -40 2.37
      vertex -32.5 -40 2.247
    endloop
  endfacet
  facet normal 0.15714 0 -0.98758
    outer loop
      vertex -33.273 -40 18.13
      vertex -33.273 -38 18.13
      vertex -32.5 -38 18.253
    endloop
  endfacet
  facet normal 0.15714 0 -0.98758
    outer loop
      vertex -33.273 -40 18.13
      vertex -32.5 -38 18.253
      vertex -32.5 -40 18.253
    endloop
  endfacet
  facet normal 0 -1 0
    outer loop
      vertex -30.12 -40 14.977
      vertex -28.5 -40 15.252
      vertex -29.998 -40 15.75
    endloop
  endfacet
  facet normal 0 -1 0
    outer loop
      vertex -31.029 -40 2.725
      vertex -31.727 -40 2.37
      vertex -28.5 -40 0
    endloop
  endfacet
  facet normal 0.45333 0 -0.89134
    outer loop
      vertex -33.971 -40 17.775
      vertex -33.971 -38 17.775
      vertex -33.273 -38 18.13
    endloop
  endfacet
  facet normal 0.45333 0 -0.89134
    outer loop
      vertex -33.971 -40 17.775
      vertex -33.273 -38 18.13
      vertex -33.273 -40 18.13
    endloop
  endfacet
  facet normal -1 0 0
    outer loop
      vertex -30 -23.003 15.252
      vertex -30 -23.003 5.247
      vertex -30 -38 6.8552
    endloop
  endfacet
  facet normal 0.70711 0 -0.70711
    outer loop
      vertex -34.525 -40 17.221
      vertex -34.525 -38 17.221
      vertex -33.971 -38 17.775
    endloop
  endfacet
  facet normal 0.70711 0 -0.70711
    outer loop
      vertex -34.525 -40 17.221
      vertex -33.971 -38 17.775
      vertex -33.971 -40 17.775
    endloop
  endfacet
  facet normal 0 -1 0
    outer loop
      vertex -30.475 -40 3.279
      vertex -31.029 -40 2.725
      vertex -28.5 -40 0
    endloop
  endfacet
  facet normal 0 -1 0
    outer loop
      vertex -30.12 -40 3.977
      vertex -30.475 -40 3.279
      vertex -28.5 -40 0
    endloop
  endfacet
  facet normal 0 1 0
    outer loop
      vertex -34.525 -38 3.279
      vertex -37 -38 0
      vertex -34.88 -38 3.977
    endloop
  endfacet
  facet normal 0.89134 0 -0.45333
    outer loop
      vertex -34.88 -40 16.523
      vertex -34.88 -38 16.523
      vertex -34.525 -38 17.221
    endloop
  endfacet
  facet normal 0.89134 0 -0.45333
    outer loop
      vertex -34.88 -40 16.523
      vertex -34.525 -38 17.221
      vertex -34.525 -40 17.221
    endloop
  endfacet
  facet normal -1 0 0
    outer loop
      vertex -30 -13.998 5.247
      vertex -30 -21.998 4.73733
      vertex -30 -21.998 4.76267
    endloop
  endfacet
  facet normal 0 1 0
    outer loop
      vertex -33.971 -38 2.725
      vertex -37 -38 0
      vertex -34.525 -38 3.279
    endloop
  endfacet
  facet normal 0.98758 0 -0.15714
    outer loop
      vertex -35.003 -40 15.75
      vertex -34.88 -38 16.523
      vertex -34.88 -40 16.523
    endloop
  endfacet
  facet normal -1 0 0
    outer loop
      vertex -30 -21.998 15.73733
      vertex -30 -21.998 15.76267
      vertex -30 -13.998 15.252
    endloop
  endfacet
  facet normal 0 1 0
    outer loop
      vertex -33.273 -38 2.37
      vertex -32.5 -38 2.247
      vertex -37 -38 0
    endloop
  endfacet
  facet normal 0 -1 0
    outer loop
      vertex -29.998 -40 4.75
      vertex -28.5 -40 5.247
      vertex -30.12 -40 5.523
    endloop
  endfacet
  facet normal -1 0 0
    outer loop
      vertex -30 -13.998 5.247
      vertex -30 -10 0
      vertex -30 -21.998 4.73733
    endloop
  endfacet
  facet normal 0 1 0
    outer loop
      vertex -31.029 -38 2.725
      vertex -30 -38 0
      vertex -31.727 -38 2.37
    endloop
  endfacet
  facet normal 0 1 0
    outer loop
      vertex -32.5 -38 2.247
      vertex -31.727 -38 2.37
      vertex -30 -38 0
    endloop
  endfacet
  facet normal 0 1 0
    outer loop
      vertex 14 -38 20
      vertex 13 -38 20.25
      vertex 21 -38 20.25
    endloop
  endfacet
  facet normal 0 1 0
    outer loop
      vertex 13 -38 20
      vertex 13 -38 20.25
      vertex 14 -38 20
    endloop
  endfacet
  facet normal 0 1 0
    outer loop
      vertex -30.475 -38 3.279
      vertex -30 -38 0
      vertex -31.029 -38 2.725
    endloop
  endfacet
  facet normal -1 0 0
    outer loop
      vertex 13 -38 20
      vertex 13 -40 20
      vertex 13 -40 20.25
    endloop
  endfacet
  facet normal -1 0 0
    outer loop
      vertex 13 -38 20
      vertex 13 -40 20.25
      vertex 13 -38 20.25
    endloop
  endfacet
  facet normal 0 -1 0
    outer loop
      vertex -31.029 -40 6.775
      vertex -30.475 -40 6.221
      vertex -31.029 -40 13.725
    endloop
  endfacet
  facet normal 0 -1 0
    outer loop
      vertex -28.5 -40 5.247
      vertex -31.029 -40 13.725
      vertex -30.475 -40 6.221
    endloop
  endfacet
  facet normal 0 0 1
    outer loop
      vertex 14 -38 20
      vertex 13.5 -11.5 20
      vertex 13 -38 20
    endloop
  endfacet
  facet normal 0 -1 0
    outer loop
      vertex -31.029 -40 13.725
      vertex -31.727 -40 13.37
      vertex -31.029 -40 6.775
    endloop
  endfacet
  facet normal 0 0 1
    outer loop
      vertex 14 -10 20
      vertex 13.5 -11.5 20
      vertex 14 -38 20
    endloop
  endfacet
  facet normal 0 0 1
    outer loop
      vertex 12.5 -40 20
      vertex 13 -38 20
      vertex 12.5 -11.5 20
    endloop
  endfacet
  facet normal 1 0 0
    outer loop
      vertex 14 -21.998 4.76885
      vertex 14 -23.003 5.247
      vertex 14 -38 4.76885
    endloop
  endfacet
  facet normal 0 0 1
    outer loop
      vertex 13 -40 20
      vertex 13 -38 20
      vertex 12.5 -40 20
    endloop
  endfacet
  facet normal 0 -1 0
    outer loop
      vertex -33.971 -40 6.775
      vertex -32.5 -40 13.247
      vertex -35.003 -40 7.253
    endloop
  endfacet
  facet normal 0 -1 0
    outer loop
      vertex -34.525 -40 6.221
      vertex -33.971 -40 6.775
      vertex -35.003 -40 7.253
    endloop
  endfacet
  facet normal 0 -1 0
    outer loop
      vertex -34.88 -40 5.523
      vertex -34.525 -40 6.221
      vertex -35.003 -40 7.253
    endloop
  endfacet
  facet normal 0 -1 0
    outer loop
      vertex -35.003 -40 7.253
      vertex -37 -40 0
      vertex -34.88 -40 5.523
    endloop
  endfacet
  facet normal 0.89134 0 -0.45333
    outer loop
      vertex 14.12 -40 16.523
      vertex 14.12 -38 16.523
      vertex 14.475 -38 17.221
    endloop
  endfacet
  facet normal 0.89134 0 -0.45333
    outer loop
      vertex 14.12 -40 16.523
      vertex 14.475 -38 17.221
      vertex 14.475 -40 17.221
    endloop
  endfacet
  facet normal 0 1 0
    outer loop
      vertex -30.12 -38 3.977
      vertex -30 -38 0
      vertex -30.475 -38 3.279
    endloop
  endfacet
  facet normal 0 1 0
    outer loop
      vertex -30 -38 4.73733
      vertex -30 -38 0
      vertex -30.12 -38 3.977
    endloop
  endfacet
  facet normal 0.98758 0 -0.15714
    outer loop
      vertex 13.997 -40 15.75
      vertex 14 -38 15.76885
      vertex 14.12 -40 16.523
    endloop
  endfacet
  facet normal 0.98758 0 -0.15714
    outer loop
      vertex 14.12 -38 16.523
      vertex 14.12 -40 16.523
      vertex 14 -38 15.76885
    endloop
  endfacet
  facet normal 0 1 0
    outer loop
      vertex 14 -38 20
      vertex 14.475 -38 17.221
      vertex 14.12 -38 16.523
    endloop
  endfacet
  facet normal 0 1 0
    outer loop
      vertex -35.003 -38 4.75
      vertex -34.88 -38 3.977
      vertex -37 -38 0
    endloop
  endfacet
  facet normal 0 -1 0
    outer loop
      vertex -34.88 -40 14.977
      vertex -35.003 -40 7.253
      vertex -34.525 -40 14.279
    endloop
  endfacet
  facet normal 0 -1 0
    outer loop
      vertex -33.971 -40 13.725
      vertex -34.525 -40 14.279
      vertex -35.003 -40 7.253
    endloop
  endfacet
  facet normal 0.98758 0 0.15714
    outer loop
      vertex 14.12 -40 14.977
      vertex 14.12 -38 14.977
      vertex 14 -38 15.73115
    endloop
  endfacet
  facet normal 0 1 0
    outer loop
      vertex 14 -38 20
      vertex 14.12 -38 16.523
      vertex 14 -38 15.76885
    endloop
  endfacet
  facet normal 0.89134 0 0.45333
    outer loop
      vertex 14.475 -40 14.279
      vertex 14.475 -38 14.279
      vertex 14.12 -38 14.977
    endloop
  endfacet
  facet normal 0.89134 0 0.45333
    outer loop
      vertex 14.475 -40 14.279
      vertex 14.12 -38 14.977
      vertex 14.12 -40 14.977
    endloop
  endfacet
  facet normal -0.98777 0 -0.1559
    outer loop
      vertex -30 -21.998 4.76267
      vertex -29.998 -21.998 4.75
      vertex -30 -38 4.76267
    endloop
  endfacet
  facet normal 0 1 0
    outer loop
      vertex 14.475 -38 14.279
      vertex 14 -38 13.247
      vertex 14.12 -38 14.977
    endloop
  endfacet
  facet normal 0 1 0
    outer loop
      vertex 14 -38 15.73115
      vertex 14.12 -38 14.977
      vertex 14 -38 13.247
    endloop
  endfacet
  facet normal 0.70711 0 0.70711
    outer loop
      vertex 15.029 -40 13.725
      vertex 15.029 -38 13.725
      vertex 14.475 -38 14.279
    endloop
  endfacet
  facet normal 0.70711 0 0.70711
    outer loop
      vertex 15.029 -40 13.725
      vertex 14.475 -38 14.279
      vertex 14.475 -40 14.279
    endloop
  endfacet
  facet normal -0.98777 0 0.1559
    outer loop
      vertex -30 -21.998 4.73733
      vertex -30 -38 4.73733
      vertex -29.998 -21.998 4.75
    endloop
  endfacet
  facet normal 0 1 0
    outer loop
      vertex -30.475 -38 6.221
      vertex -30 -38 6.8552
      vertex -30.12 -38 5.523
    endloop
  endfacet
  facet normal 0 1 0
    outer loop
      vertex 15.029 -38 13.725
      vertex 14 -38 13.247
      vertex 14.475 -38 14.279
    endloop
  endfacet
  facet normal 0.45333 0 0.89134
    outer loop
      vertex 15.727 -40 13.37
      vertex 15.727 -38 13.37
      vertex 15.029 -38 13.725
    endloop
  endfacet
  facet normal 0.45333 0 0.89134
    outer loop
      vertex 15.727 -40 13.37
      vertex 15.029 -38 13.725
      vertex 15.029 -40 13.725
    endloop
  endfacet
  facet normal 0 1 0
    outer loop
      vertex -31.029 -38 6.775
      vertex -30 -38 6.8552
      vertex -30.475 -38 6.221
    endloop
  endfacet
  facet normal 0 1 0
    outer loop
      vertex 15.727 -38 13.37
      vertex 16.5 -38 7.252
      vertex 15.029 -38 13.725
    endloop
  endfacet
  facet normal -0.98777 0 -0.1559
    outer loop
      vertex -29.998 -40 4.75
      vertex -30 -38 4.76267
      vertex -29.998 -21.998 4.75
    endloop
  endfacet
  facet normal 0 1 0
    outer loop
      vertex -32.5 -38 13.247
      vertex -31.727 -38 13.37
      vertex -31.727 -38 7.13
    endloop
  endfacet
  facet normal 0 1 0
    outer loop
      vertex -30 -38 4.76267
      vertex -30.12 -38 5.523
      vertex -30 -38 6.8552
    endloop
  endfacet
  facet normal 0.15714 0 0.98758
    outer loop
      vertex 15.727 -40 13.37
      vertex 16.5 -38 13.247
      vertex 15.727 -38 13.37
    endloop
  endfacet
  facet normal 0 1 0
    outer loop
      vertex 16.5 -38 13.247
      vertex 17.273 -38 13.37
      vertex 17.273 -38 7.13
    endloop
  endfacet
  facet normal -0.98777 0 0.1559
    outer loop
      vertex -29.998 -40 4.75
      vertex -29.998 -21.998 4.75
      vertex -30 -38 4.73733
    endloop
  endfacet
  facet normal 0 1 0
    outer loop
      vertex -33.273 -38 13.37
      vertex -32.5 -38 13.247
      vertex -33.273 -38 7.13
    endloop
  endfacet
  facet normal -0.98758 0 -0.15714
    outer loop
      vertex 18.88 -40 16.523
      vertex 18.88 -38 16.523
      vertex 19.003 -38 15.75
    endloop
  endfacet
  facet normal -0.98758 0 -0.15714
    outer loop
      vertex 18.88 -40 16.523
      vertex 19.003 -38 15.75
      vertex 19.003 -40 15.75
    endloop
  endfacet
  facet normal -0.89134 0 -0.45333
    outer loop
      vertex 18.525 -40 17.221
      vertex 18.525 -38 17.221
      vertex 18.88 -38 16.523
    endloop
  endfacet
  facet normal -0.89134 0 -0.45333
    outer loop
      vertex 18.525 -40 17.221
      vertex 18.88 -38 16.523
      vertex 18.88 -40 16.523
    endloop
  endfacet
  facet normal 0 1 0
    outer loop
      vertex 17.971 -38 17.775
      vertex 21 -38 20.25
      vertex 18.525 -38 17.221
    endloop
  endfacet
  facet normal -0.70711 0 -0.70711
    outer loop
      vertex 17.971 -40 17.775
      vertex 17.971 -38 17.775
      vertex 18.525 -38 17.221
    endloop
  endfacet
  facet normal -0.70711 0 -0.70711
    outer loop
      vertex 17.971 -40 17.775
      vertex 18.525 -38 17.221
      vertex 18.525 -40 17.221
    endloop
  endfacet
  facet normal 0 1 0
    outer loop
      vertex -35.003 -38 13.247
      vertex -34.525 -38 6.221
      vertex -34.88 -38 5.523
    endloop
  endfacet
  facet normal 0 1 0
    outer loop
      vertex -35.003 -38 4.75
      vertex -37 -38 20.25
      vertex -34.88 -38 5.523
    endloop
  endfacet
  facet normal -0.45333 0 -0.89134
    outer loop
      vertex 17.273 -40 18.13
      vertex 17.273 -38 18.13
      vertex 17.971 -38 17.775
    endloop
  endfacet
  facet normal -0.45333 0 -0.89134
    outer loop
      vertex 17.273 -40 18.13
      vertex 17.971 -38 17.775
      vertex 17.971 -40 17.775
    endloop
  endfacet
  facet normal 0 1 0
    outer loop
      vertex 16.5 -38 18.252
      vertex 21 -38 20.25
      vertex 17.273 -38 18.13
    endloop
  endfacet
  facet normal -0.1559 0 -0.98777
    outer loop
      vertex 16.5 -40 18.252
      vertex 16.5 -38 18.252
      vertex 17.273 -38 18.13
    endloop
  endfacet
  facet normal -0.1559 0 -0.98777
    outer loop
      vertex 16.5 -40 18.252
      vertex 17.273 -38 18.13
      vertex 17.273 -40 18.13
    endloop
  endfacet
  facet normal 0 1 0
    outer loop
      vertex 15.727 -38 18.13
      vertex 14 -38 20
      vertex 16.5 -38 18.252
    endloop
  endfacet
  facet normal 0 0 1
    outer loop
      vertex -30 -23.003 5.247
      vertex -28.5 -23.003 5.247
      vertex -30 -13.998 5.247
    endloop
  endfacet
  facet normal 0.1559 0 -0.98777
    outer loop
      vertex 16.5 -38 18.252
      vertex 16.5 -40 18.252
      vertex 15.727 -38 18.13
    endloop
  endfacet
  facet normal 0.1559 0 -0.98777
    outer loop
      vertex 15.727 -40 18.13
      vertex 15.727 -38 18.13
      vertex 16.5 -40 18.252
    endloop
  endfacet
  facet normal 0 1 0
    outer loop
      vertex 17.971 -38 13.725
      vertex 17.971 -38 6.775
      vertex 17.273 -38 13.37
    endloop
  endfacet
  facet normal 0 1 0
    outer loop
      vertex 17.971 -38 6.775
      vertex 17.273 -38 7.13
      vertex 17.273 -38 13.37
    endloop
  endfacet
  facet normal 0.15714 0 0.98758
    outer loop
      vertex 16.5 -38 13.247
      vertex 15.727 -40 13.37
      vertex 16.5 -40 13.247
    endloop
  endfacet
  facet normal 0 1 0
    outer loop
      vertex -28.5 -23.003 5.247
      vertex -30 -23.003 5.247
      vertex -30 -23.003 15.252
    endloop
  endfacet
  facet normal -0.15714 0 0.98758
    outer loop
      vertex 17.273 -40 13.37
      vertex 17.273 -38 13.37
      vertex 16.5 -38 13.247
    endloop
  endfacet
  facet normal -0.15714 0 0.98758
    outer loop
      vertex 17.273 -40 13.37
      vertex 16.5 -38 13.247
      vertex 16.5 -40 13.247
    endloop
  endfacet
  facet normal -0.45333 0 0.89134
    outer loop
      vertex 17.971 -40 13.725
      vertex 17.971 -38 13.725
      vertex 17.273 -38 13.37
    endloop
  endfacet
  facet normal -0.45333 0 0.89134
    outer loop
      vertex 17.971 -40 13.725
      vertex 17.273 -38 13.37
      vertex 17.273 -40 13.37
    endloop
  endfacet
  facet normal 0 1 0
    outer loop
      vertex 19.003 -38 15.75
      vertex 21 -38 0
      vertex 18.88 -38 14.977
    endloop
  endfacet
  facet normal 0 1 0
    outer loop
      vertex 18.88 -38 14.977
      vertex 18.525 -38 6.221
      vertex 18.525 -38 14.279
    endloop
  endfacet
  facet normal -0.98777 0 0.1559
    outer loop
      vertex -30.12 -40 14.977
      vertex -29.998 -40 15.75
      vertex -30 -38 15.73733
    endloop
  endfacet
  facet normal 1 0 0
    outer loop
      vertex 14 -13.998 5.247
      vertex 14 -23.003 5.247
      vertex 14 -21.998 4.76885
    endloop
  endfacet
  facet normal -0.70711 0 0.70711
    outer loop
      vertex 18.525 -40 14.279
      vertex 18.525 -38 14.279
      vertex 17.971 -38 13.725
    endloop
  endfacet
  facet normal -0.70711 0 0.70711
    outer loop
      vertex 18.525 -40 14.279
      vertex 17.971 -38 13.725
      vertex 17.971 -40 13.725
    endloop
  endfacet
  facet normal 0 1 0
    outer loop
      vertex 17.971 -38 17.775
      vertex 17.273 -38 18.13
      vertex 21 -38 20.25
    endloop
  endfacet
  facet normal 0 1 0
    outer loop
      vertex 15.029 -38 17.775
      vertex 14 -38 20
      vertex 15.727 -38 18.13
    endloop
  endfacet
  facet normal 0 1 0
    outer loop
      vertex 14.475 -38 17.221
      vertex 14 -38 20
      vertex 15.029 -38 17.775
    endloop
  endfacet
  facet normal 0 1 0
    outer loop
      vertex 21 -38 20.25
      vertex 16.5 -38 18.252
      vertex 14 -38 20
    endloop
  endfacet
  facet normal -0.89134 0 0.45333
    outer loop
      vertex 18.88 -40 14.977
      vertex 18.88 -38 14.977
      vertex 18.525 -38 14.279
    endloop
  endfacet
  facet normal -0.89134 0 0.45333
    outer loop
      vertex 18.88 -40 14.977
      vertex 18.525 -38 14.279
      vertex 18.525 -40 14.279
    endloop
  endfacet
  facet normal -0.98777 0 0.1559
    outer loop
      vertex -29.998 -21.998 15.75
      vertex -30 -38 15.73733
      vertex -29.998 -40 15.75
    endloop
  endfacet
  facet normal 0 1 0
    outer loop
      vertex 21 -38 0
      vertex 18.88 -38 5.523
      vertex 18.88 -38 14.977
    endloop
  endfacet
  facet normal 0 1 0
    outer loop
      vertex 21 -38 20.25
      vertex 21 -38 0
      vertex 19.003 -38 15.75
    endloop
  endfacet
  facet normal 0 1 0
    outer loop
      vertex 21 -38 20.25
      vertex 19.003 -38 15.75
      vertex 18.88 -38 16.523
    endloop
  endfacet
  facet normal 0 1 0
    outer loop
      vertex 21 -38 20.25
      vertex 18.88 -38 16.523
      vertex 18.525 -38 17.221
    endloop
  endfacet
  facet normal -0.98758 0 0.15714
    outer loop
      vertex 18.88 -38 14.977
      vertex 18.88 -40 14.977
      vertex 19.003 -40 15.75
    endloop
  endfacet
  facet normal -0.98758 0 0.15714
    outer loop
      vertex 18.88 -38 14.977
      vertex 19.003 -40 15.75
      vertex 19.003 -38 15.75
    endloop
  endfacet
  facet normal -0.98777 0 -0.1559
    outer loop
      vertex -30 -38 15.76267
      vertex -29.998 -21.998 15.75
      vertex -29.998 -40 15.75
    endloop
  endfacet
  facet normal 1 0 0
    outer loop
      vertex 14 -21.998 4.73115
      vertex 14 -38 4.73115
      vertex 14 -38 0
    endloop
  endfacet
  facet normal 0.1559 0 -0.98777
    outer loop
      vertex 16.5 -38 7.252
      vertex 15.727 -40 7.13
      vertex 15.727 -38 7.13
    endloop
  endfacet
  facet normal 0.45333 0 -0.89134
    outer loop
      vertex 15.029 -40 6.775
      vertex 15.029 -38 6.775
      vertex 15.727 -38 7.13
    endloop
  endfacet
  facet normal 0.45333 0 -0.89134
    outer loop
      vertex 15.029 -40 6.775
      vertex 15.727 -38 7.13
      vertex 15.727 -40 7.13
    endloop
  endfacet
  facet normal 0 1 0
    outer loop
      vertex 14.475 -38 6.221
      vertex 14 -38 13.247
      vertex 15.029 -38 6.775
    endloop
  endfacet
  facet normal -0.98777 0 -0.1559
    outer loop
      vertex -30 -38 15.76267
      vertex -30 -21.998 15.76267
      vertex -29.998 -21.998 15.75
    endloop
  endfacet
  facet normal 0.70711 0 -0.70711
    outer loop
      vertex 14.475 -40 6.221
      vertex 14.475 -38 6.221
      vertex 15.029 -38 6.775
    endloop
  endfacet
  facet normal 0.70711 0 -0.70711
    outer loop
      vertex 14.475 -40 6.221
      vertex 15.029 -38 6.775
      vertex 15.029 -40 6.775
    endloop
  endfacet
  facet normal 0.89134 0 -0.45333
    outer loop
      vertex 14.12 -40 5.523
      vertex 14.12 -38 5.523
      vertex 14.475 -38 6.221
    endloop
  endfacet
  facet normal 0.89134 0 -0.45333
    outer loop
      vertex 14.12 -40 5.523
      vertex 14.475 -38 6.221
      vertex 14.475 -40 6.221
    endloop
  endfacet
  facet normal 0 1 0
    outer loop
      vertex 14 -38 13.247
      vertex 14.475 -38 6.221
      vertex 14.12 -38 5.523
    endloop
  endfacet
  facet normal 0 1 0
    outer loop
      vertex 14 -38 13.247
      vertex 14.12 -38 5.523
      vertex 14 -38 4.76885
    endloop
  endfacet
  facet normal 1 0 0
    outer loop
      vertex 14 -23.003 15.252
      vertex 14 -38 13.247
      vertex 14 -23.003 5.247
    endloop
  endfacet
  facet normal 0 1 0
    outer loop
      vertex 14 -38 4.73115
      vertex 14.12 -38 3.977
      vertex 14 -38 0
    endloop
  endfacet
  facet normal 0.98758 0 -0.15714
    outer loop
      vertex 13.997 -40 4.75
      vertex 14 -38 4.76885
      vertex 14.12 -40 5.523
    endloop
  endfacet
  facet normal 0.98758 0 -0.15714
    outer loop
      vertex 14.12 -38 5.523
      vertex 14.12 -40 5.523
      vertex 14 -38 4.76885
    endloop
  endfacet
  facet normal -0.98777 0 0.1559
    outer loop
      vertex -30 -38 15.73733
      vertex -29.998 -21.998 15.75
      vertex -30 -21.998 15.73733
    endloop
  endfacet
  facet normal 0 1 0
    outer loop
      vertex 14.475 -38 3.279
      vertex 14 -38 0
      vertex 14.12 -38 3.977
    endloop
  endfacet
  facet normal 0.98758 0 0.15714
    outer loop
      vertex 14.12 -40 3.977
      vertex 14.12 -38 3.977
      vertex 14 -38 4.73115
    endloop
  endfacet
  facet normal 0.98758 0 0.15714
    outer loop
      vertex 14.12 -40 3.977
      vertex 14 -38 4.73115
      vertex 13.997 -40 4.75
    endloop
  endfacet
  facet normal 0 1 0
    outer loop
      vertex 15.029 -38 2.725
      vertex 14 -38 0
      vertex 14.475 -38 3.279
    endloop
  endfacet
  facet normal 0 1 0
    outer loop
      vertex -33.971 -38 13.725
      vertex -35.003 -38 13.247
      vertex -34.525 -38 14.279
    endloop
  endfacet
  facet normal 0.89134 0 0.45333
    outer loop
      vertex 14.475 -40 3.279
      vertex 14.475 -38 3.279
      vertex 14.12 -38 3.977
    endloop
  endfacet
  facet normal 0.89134 0 0.45333
    outer loop
      vertex 14.475 -40 3.279
      vertex 14.12 -38 3.977
      vertex 14.12 -40 3.977
    endloop
  endfacet
  facet normal 0 0 -1
    outer loop
      vertex -30 -13.998 15.252
      vertex -28.5 -23.003 15.252
      vertex -30 -23.003 15.252
    endloop
  endfacet
  facet normal 0 1 0
    outer loop
      vertex 15.727 -38 2.37
      vertex 14 -38 0
      vertex 15.029 -38 2.725
    endloop
  endfacet
  facet normal 0 1 0
    outer loop
      vertex -33.273 -38 13.37
      vertex -33.273 -38 7.13
      vertex -33.971 -38 13.725
    endloop
  endfacet
  facet normal 0 1 0
    outer loop
      vertex -34.88 -38 14.977
      vertex -34.525 -38 14.279
      vertex -35.003 -38 13.247
    endloop
  endfacet
  facet normal 0.70711 0 0.70711
    outer loop
      vertex 15.029 -40 2.725
      vertex 15.029 -38 2.725
      vertex 14.475 -38 3.279
    endloop
  endfacet
  facet normal 0.70711 0 0.70711
    outer loop
      vertex 15.029 -40 2.725
      vertex 14.475 -38 3.279
      vertex 14.475 -40 3.279
    endloop
  endfacet
  facet normal 0 1 0
    outer loop
      vertex 16.5 -38 2.247
      vertex 14 -38 0
      vertex 15.727 -38 2.37
    endloop
  endfacet
  facet normal 0 1 0
    outer loop
      vertex -31.029 -38 6.775
      vertex -31.727 -38 7.13
      vertex -31.727 -38 13.37
    endloop
  endfacet
  facet normal 0 1 0
    outer loop
      vertex 19.003 -38 4.75
      vertex 18.88 -38 5.523
      vertex 21 -38 0
    endloop
  endfacet
  facet normal 0.45333 0 0.89134
    outer loop
      vertex 15.727 -40 2.37
      vertex 15.727 -38 2.37
      vertex 15.029 -38 2.725
    endloop
  endfacet
  facet normal 0.45333 0 0.89134
    outer loop
      vertex 15.727 -40 2.37
      vertex 15.029 -38 2.725
      vertex 15.029 -40 2.725
    endloop
  endfacet
  facet normal 0 -1 0
    outer loop
      vertex -30 -21.998 4.73733
      vertex -29.998 -21.998 4.75
      vertex -30 -21.998 4.76267
    endloop
  endfacet
  facet normal 0 1 0
    outer loop
      vertex -31.029 -38 13.725
      vertex -30 -38 6.8552
      vertex -31.727 -38 13.37
    endloop
  endfacet
  facet normal 0 1 0
    outer loop
      vertex -30 -38 6.8552
      vertex -31.029 -38 6.775
      vertex -31.727 -38 13.37
    endloop
  endfacet
  facet normal 0 -1 0
    outer loop
      vertex -30 -21.998 15.73733
      vertex -29.998 -21.998 15.75
      vertex -30 -21.998 15.76267
    endloop
  endfacet
  facet normal 0 -1 0
    outer loop
      vertex 17.273 -40 18.13
      vertex 17.971 -40 17.775
      vertex 21 -40 20.25
    endloop
  endfacet
  facet normal 0 -1 0
    outer loop
      vertex 21 -40 20.25
      vertex 18.525 -40 17.221
      vertex 18.88 -40 16.523
    endloop
  endfacet
  facet normal 0 -1 0
    outer loop
      vertex 21 -40 13.247
      vertex 21 -40 20.25
      vertex 19.003 -40 15.75
    endloop
  endfacet
  facet normal 0 -1 0
    outer loop
      vertex 18.88 -40 16.523
      vertex 19.003 -40 15.75
      vertex 21 -40 20.25
    endloop
  endfacet
  facet normal 0.15714 0 0.98758
    outer loop
      vertex 15.727 -40 2.37
      vertex 16.5 -38 2.247
      vertex 15.727 -38 2.37
    endloop
  endfacet
  facet normal 0 1 0
    outer loop
      vertex -30.475 -38 14.279
      vertex -30 -38 6.8552
      vertex -31.029 -38 13.725
    endloop
  endfacet
  facet normal 0 -1 0
    outer loop
      vertex -30 -13.998 15.252
      vertex -30 -13.998 5.247
      vertex -28.5 -13.998 5.247
    endloop
  endfacet
  facet normal 0 1 0
    outer loop
      vertex -30.12 -38 14.977
      vertex -30 -38 6.8552
      vertex -30.475 -38 14.279
    endloop
  endfacet
  facet normal -0.98758 0 -0.15714
    outer loop
      vertex 18.88 -40 5.523
      vertex 18.88 -38 5.523
      vertex 19.003 -38 4.75
    endloop
  endfacet
  facet normal -0.98758 0 -0.15714
    outer loop
      vertex 18.88 -40 5.523
      vertex 19.003 -38 4.75
      vertex 19.003 -40 4.75
    endloop
  endfacet
  facet normal 0 0 1
    outer loop
      vertex -30 -13.998 5.247
      vertex -28.5 -23.003 5.247
      vertex -28.5 -13.998 5.247
    endloop
  endfacet
  facet normal 0 1 0
    outer loop
      vertex -30 -38 15.73733
      vertex -30 -38 6.8552
      vertex -30.12 -38 14.977
    endloop
  endfacet
  facet normal -0.89134 0 -0.45333
    outer loop
      vertex 18.525 -40 6.221
      vertex 18.525 -38 6.221
      vertex 18.88 -38 5.523
    endloop
  endfacet
  facet normal -0.89134 0 -0.45333
    outer loop
      vertex 18.525 -40 6.221
      vertex 18.88 -38 5.523
      vertex 18.88 -40 5.523
    endloop
  endfacet
  facet normal 0 -1 0
    outer loop
      vertex 15.727 -40 7.13
      vertex 16.5 -40 13.247
      vertex 15.029 -40 6.775
    endloop
  endfacet
  facet normal 0 -1 0
    outer loop
      vertex -28.5 -13.998 15.252
      vertex -30 -13.998 15.252
      vertex -28.5 -13.998 5.247
    endloop
  endfacet
  facet normal 0 1 0
    outer loop
      vertex -30 -38 15.76267
      vertex -30.12 -38 16.523
      vertex -30 -38 20.25
    endloop
  endfacet
  facet normal -0.70711 0 -0.70711
    outer loop
      vertex 17.971 -40 6.775
      vertex 17.971 -38 6.775
      vertex 18.525 -38 6.221
    endloop
  endfacet
  facet normal -0.70711 0 -0.70711
    outer loop
      vertex 17.971 -40 6.775
      vertex 18.525 -38 6.221
      vertex 18.525 -40 6.221
    endloop
  endfacet
  facet normal 0 1 0
    outer loop
      vertex -37 -38 20.25
      vertex -34.88 -38 16.523
      vertex -35.003 -38 15.75
    endloop
  endfacet
  facet normal 0 1 0
    outer loop
      vertex -30 -23.003 15.252
      vertex -28.5 -23.003 15.252
      vertex -28.5 -23.003 5.247
    endloop
  endfacet
  facet normal 0 -1 0
    outer loop
      vertex 14.475 -40 6.221
      vertex 13.997 -40 7.252
      vertex 14.12 -40 5.523
    endloop
  endfacet
  facet normal 0 -1 0
    outer loop
      vertex 13.997 -40 4.75
      vertex 14.12 -40 5.523
      vertex 13.997 -40 7.252
    endloop
  endfacet
  facet normal -0.45333 0 -0.89134
    outer loop
      vertex 17.273 -40 7.13
      vertex 17.273 -38 7.13
      vertex 17.971 -38 6.775
    endloop
  endfacet
  facet normal -0.45333 0 -0.89134
    outer loop
      vertex 17.273 -40 7.13
      vertex 17.971 -38 6.775
      vertex 17.971 -40 6.775
    endloop
  endfacet
  facet normal 0 -1 0
    outer loop
      vertex 13.997 -40 4.75
      vertex 12.5 -40 0
      vertex 14.12 -40 3.977
    endloop
  endfacet
  facet normal 0 1 0
    outer loop
      vertex -30.475 -38 17.221
      vertex -30 -38 20.25
      vertex -30.12 -38 16.523
    endloop
  endfacet
  facet normal -0.1559 0 -0.98777
    outer loop
      vertex 16.5 -40 7.252
      vertex 16.5 -38 7.252
      vertex 17.273 -38 7.13
    endloop
  endfacet
  facet normal -0.1559 0 -0.98777
    outer loop
      vertex 16.5 -40 7.252
      vertex 17.273 -38 7.13
      vertex 17.273 -40 7.13
    endloop
  endfacet
  facet normal 0 0 -1
    outer loop
      vertex -30 -13.998 15.252
      vertex -28.5 -13.998 15.252
      vertex -28.5 -23.003 15.252
    endloop
  endfacet
  facet normal 0 1 0
    outer loop
      vertex -31.029 -38 17.775
      vertex -30 -38 20.25
      vertex -30.475 -38 17.221
    endloop
  endfacet
  facet normal 0.1559 0 -0.98777
    outer loop
      vertex 15.727 -40 7.13
      vertex 16.5 -38 7.252
      vertex 16.5 -40 7.252
    endloop
  endfacet
  facet normal 0 -1 0
    outer loop
      vertex 13.5 -11.5 20
      vertex 13.5 -11.5 20.25
      vertex 12.5 -11.5 20
    endloop
  endfacet
  facet normal 0 -1 0
    outer loop
      vertex -28.5 -11.5 20.25
      vertex 12.5 -11.5 20
      vertex 13.5 -11.5 20.25
    endloop
  endfacet
  facet normal 0 1 0
    outer loop
      vertex -31.727 -38 18.13
      vertex -30 -38 20.25
      vertex -31.029 -38 17.775
    endloop
  endfacet
  facet normal 0 -1 0
    outer loop
      vertex 14.12 -40 3.977
      vertex 12.5 -40 0
      vertex 14.475 -40 3.279
    endloop
  endfacet
  facet normal 0.15714 0 0.98758
    outer loop
      vertex 16.5 -38 2.247
      vertex 15.727 -40 2.37
      vertex 16.5 -40 2.247
    endloop
  endfacet
  facet normal 0 1 0
    outer loop
      vertex -32.5 -38 18.253
      vertex -30 -38 20.25
      vertex -31.727 -38 18.13
    endloop
  endfacet
  facet normal 0 -1 0
    outer loop
      vertex -28.5 -11.5 20.25
      vertex -28.5 -11.5 0
      vertex 12.5 -11.5 20
    endloop
  endfacet
  facet normal 0 -1 0
    outer loop
      vertex 12.5 -11.5 0
      vertex 12.5 -11.5 20
      vertex -28.5 -11.5 0
    endloop
  endfacet
  facet normal -1 0 0
    outer loop
      vertex -30 -13.998 15.252
      vertex -30 -10 20.25
      vertex -30 -13.998 5.247
    endloop
  endfacet
  facet normal -1 0 0
    outer loop
      vertex -30 -10 0
      vertex -30 -13.998 5.247
      vertex -30 -10 20.25
    endloop
  endfacet
  facet normal -0.15714 0 0.98758
    outer loop
      vertex 17.273 -40 2.37
      vertex 17.273 -38 2.37
      vertex 16.5 -38 2.247
    endloop
  endfacet
  facet normal -0.15714 0 0.98758
    outer loop
      vertex 17.273 -40 2.37
      vertex 16.5 -38 2.247
      vertex 16.5 -40 2.247
    endloop
  endfacet
  facet normal 0 -1 0
    outer loop
      vertex 21 -40 0
      vertex 16.5 -40 2.247
      vertex 12.5 -40 0
    endloop
  endfacet
  facet normal 0 -1 0
    outer loop
      vertex 15.727 -40 2.37
      vertex 15.029 -40 2.725
      vertex 12.5 -40 0
    endloop
  endfacet
  facet normal 0 0 1
    outer loop
      vertex 12.5 -11.5 20
      vertex 13 -38 20
      vertex 13.5 -11.5 20
    endloop
  endfacet
  facet normal 0 0 1
    outer loop
      vertex 13.5 -10 20
      vertex 13.5 -11.5 20
      vertex 14 -10 20
    endloop
  endfacet
  facet normal 0 1 0
    outer loop
      vertex -34.525 -38 17.221
      vertex -37 -38 20.25
      vertex -33.971 -38 17.775
    endloop
  endfacet
  facet normal -0.45333 0 0.89134
    outer loop
      vertex 17.971 -40 2.725
      vertex 17.971 -38 2.725
      vertex 17.273 -38 2.37
    endloop
  endfacet
  facet normal -0.45333 0 0.89134
    outer loop
      vertex 17.971 -40 2.725
      vertex 17.273 -38 2.37
      vertex 17.273 -40 2.37
    endloop
  endfacet
  facet normal 0 1 0
    outer loop
      vertex -34.88 -38 16.523
      vertex -37 -38 20.25
      vertex -34.525 -38 17.221
    endloop
  endfacet
  facet normal 0 1 0
    outer loop
      vertex -33.273 -38 18.13
      vertex -33.971 -38 17.775
      vertex -37 -38 20.25
    endloop
  endfacet
  facet normal -0.70711 0 0.70711
    outer loop
      vertex 18.525 -40 3.279
      vertex 18.525 -38 3.279
      vertex 17.971 -38 2.725
    endloop
  endfacet
  facet normal -0.70711 0 0.70711
    outer loop
      vertex 18.525 -40 3.279
      vertex 17.971 -38 2.725
      vertex 17.971 -40 2.725
    endloop
  endfacet
  facet normal 1 0 0
    outer loop
      vertex 14 -10 3.5
      vertex 14 -10 4.748
      vertex 14 -13.998 5.247
    endloop
  endfacet
  facet normal 1 0 0
    outer loop
      vertex 14 -13.998 15.252
      vertex 14 -13.998 5.247
      vertex 14 -10 15.253
    endloop
  endfacet
  facet normal 1 0 0
    outer loop
      vertex 14 -10 4.748
      vertex 14 -10 15.253
      vertex 14 -13.998 5.247
    endloop
  endfacet
  facet normal 1 0 0
    outer loop
      vertex 14 -10 15.253
      vertex 14 -10 16.5
      vertex 14 -13.998 15.252
    endloop
  endfacet
  facet normal 1 0 0
    outer loop
      vertex 14 -10 20
      vertex 14 -13.998 15.252
      vertex 14 -10 16.5
    endloop
  endfacet
  facet normal 1 0 0
    outer loop
      vertex 13.5 -10 20.25
      vertex 13.5 -11.5 20.25
      vertex 13.5 -11.5 20
    endloop
  endfacet
  facet normal 1 0 0
    outer loop
      vertex 13.5 -10 20.25
      vertex 13.5 -11.5 20
      vertex 13.5 -10 20
    endloop
  endfacet
  facet normal 1 0 0
    outer loop
      vertex 14 -21.998 4.76885
      vertex 14 -21.998 4.73115
      vertex 14 -13.998 5.247
    endloop
  endfacet
  facet normal 1 0 0
    outer loop
      vertex 14 -21.998 4.73115
      vertex 14 -10 0
      vertex 14 -13.998 5.247
    endloop
  endfacet
  facet normal -0.89134 0 0.45333
    outer loop
      vertex 18.88 -40 3.977
      vertex 18.88 -38 3.977
      vertex 18.525 -38 3.279
    endloop
  endfacet
  facet normal -0.89134 0 0.45333
    outer loop
      vertex 18.88 -40 3.977
      vertex 18.525 -38 3.279
      vertex 18.525 -40 3.279
    endloop
  endfacet
  facet normal 0 -1 0
    outer loop
      vertex 18.525 -40 6.221
      vertex 21 -40 13.247
      vertex 17.971 -40 6.775
    endloop
  endfacet
  facet normal 1 0 0
    outer loop
      vertex 14 -10 3.5
      vertex 14 -13.998 5.247
      vertex 14 -10 0
    endloop
  endfacet
  facet normal 1 0 0
    outer loop
      vertex 14 -10 0
      vertex 14 -21.998 4.73115
      vertex 14 -38 0
    endloop
  endfacet
  facet normal -0.98758 0 0.15714
    outer loop
      vertex 18.88 -38 3.977
      vertex 18.88 -40 3.977
      vertex 19.003 -40 4.75
    endloop
  endfacet
  facet normal -0.98758 0 0.15714
    outer loop
      vertex 18.88 -38 3.977
      vertex 19.003 -40 4.75
      vertex 19.003 -38 4.75
    endloop
  endfacet
  facet normal -1 0 0
    outer loop
      vertex 12.5 -13.998 5.247
      vertex 12.5 -13.998 15.252
      vertex 12.5 -11.5 20
    endloop
  endfacet
  facet normal -1 0 0
    outer loop
      vertex 12.5 -23.003 15.252
      vertex 12.5 -23.003 5.247
      vertex 12.5 -40 20
    endloop
  endfacet
  facet normal 0 -1 0
    outer loop
      vertex 17.971 -40 13.725
      vertex 17.273 -40 13.37
      vertex 17.273 -40 7.13
    endloop
  endfacet
  facet normal -1 0 0
    outer loop
      vertex 12.5 -13.998 5.247
      vertex 12.5 -11.5 0
      vertex 12.5 -23.003 5.247
    endloop
  endfacet
  facet normal -1 0 0
    outer loop
      vertex 12.5 -11.5 20
      vertex 12.5 -11.5 0
      vertex 12.5 -13.998 5.247
    endloop
  endfacet
  facet normal -1 0 0
    outer loop
      vertex 12.5 -40 0
      vertex 12.5 -23.003 5.247
      vertex 12.5 -11.5 0
    endloop
  endfacet
  facet normal -1 0 0
    outer loop
      vertex 12.5 -11.5 20
      vertex 12.5 -13.998 15.252
      vertex 12.5 -23.003 15.252
    endloop
  endfacet
  facet normal -1 0 0
    outer loop
      vertex 12.5 -40 0
      vertex 12.5 -40 20
      vertex 12.5 -23.003 5.247
    endloop
  endfacet
  facet normal -1 0 0
    outer loop
      vertex 12.5 -11.5 20
      vertex 12.5 -23.003 15.252
      vertex 12.5 -40 20
    endloop
  endfacet
  facet normal 0.98758 0 0.15714
    outer loop
      vertex 14.12 -40 14.977
      vertex 14 -38 15.73115
      vertex 13.997 -40 15.75
    endloop
  endfacet
  facet normal 0.98758 0 0.15714
    outer loop
      vertex 14 -21.998 15.73115
      vertex 13.997 -21.998 15.75
      vertex 14 -38 15.73115
    endloop
  endfacet
  facet normal 0 -1 0
    outer loop
      vertex 14.475 -40 6.221
      vertex 15.029 -40 6.775
      vertex 13.997 -40 7.252
    endloop
  endfacet
  facet normal 0 -1 0
    outer loop
      vertex 21 -40 13.247
      vertex 17.971 -40 13.725
      vertex 17.273 -40 7.13
    endloop
  endfacet
  facet normal 0 -1 0
    outer loop
      vertex 16.5 -40 7.252
      vertex 17.273 -40 7.13
      vertex 16.5 -40 13.247
    endloop
  endfacet
  facet normal 0 -1 0
    outer loop
      vertex 17.273 -40 13.37
      vertex 16.5 -40 13.247
      vertex 17.273 -40 7.13
    endloop
  endfacet
  facet normal 0 -1 0
    outer loop
      vertex 15.727 -40 7.13
      vertex 16.5 -40 7.252
      vertex 16.5 -40 13.247
    endloop
  endfacet
  facet normal 0 -1 0
    outer loop
      vertex 13.997 -40 7.252
      vertex 15.029 -40 6.775
      vertex 16.5 -40 13.247
    endloop
  endfacet
  facet normal 0 -1 0
    outer loop
      vertex 13.997 -40 7.252
      vertex 16.5 -40 13.247
      vertex 15.727 -40 13.37
    endloop
  endfacet
  facet normal 1 0 0
    outer loop
      vertex 14 -21.998 15.73115
      vertex 14 -38 15.73115
      vertex 14 -23.003 15.252
    endloop
  endfacet
  facet normal 0 -1 0
    outer loop
      vertex 17.273 -40 7.13
      vertex 17.971 -40 6.775
      vertex 21 -40 13.247
    endloop
  endfacet
  facet normal 0 -1 0
    outer loop
      vertex 21 -40 13.247
      vertex 18.525 -40 6.221
      vertex 18.88 -40 5.523
    endloop
  endfacet
  facet normal 0 -1 0
    outer loop
      vertex 21 -40 0
      vertex 21 -40 13.247
      vertex 19.003 -40 4.75
    endloop
  endfacet
  facet normal 0 -1 0
    outer loop
      vertex 18.88 -40 3.977
      vertex 21 -40 0
      vertex 19.003 -40 4.75
    endloop
  endfacet
  facet normal 0 -1 0
    outer loop
      vertex 18.88 -40 5.523
      vertex 19.003 -40 4.75
      vertex 21 -40 13.247
    endloop
  endfacet
  facet normal 1 0 0
    outer loop
      vertex 14 -38 13.247
      vertex 14 -23.003 15.252
      vertex 14 -38 15.73115
    endloop
  endfacet
  facet normal -1 0 0
    outer loop
      vertex -30 -38 15.73733
      vertex -30 -23.003 15.252
      vertex -30 -38 6.8552
    endloop
  endfacet
  facet normal 0 -1 0
    outer loop
      vertex 18.88 -40 3.977
      vertex 18.525 -40 3.279
      vertex 21 -40 0
    endloop
  endfacet
  facet normal 0 -1 0
    outer loop
      vertex 18.525 -40 3.279
      vertex 17.971 -40 2.725
      vertex 21 -40 0
    endloop
  endfacet
  facet normal 0 -1 0
    outer loop
      vertex 21 -40 0
      vertex 17.971 -40 2.725
      vertex 17.273 -40 2.37
    endloop
  endfacet
  facet normal 0 -1 0
    outer loop
      vertex 21 -40 0
      vertex 17.273 -40 2.37
      vertex 16.5 -40 2.247
    endloop
  endfacet
  facet normal 0 -1 0
    outer loop
      vertex 15.727 -40 2.37
      vertex 12.5 -40 0
      vertex 16.5 -40 2.247
    endloop
  endfacet
  facet normal 0.98758 0 -0.15714
    outer loop
      vertex 13.997 -40 15.75
      vertex 13.997 -21.998 15.75
      vertex 14 -38 15.76885
    endloop
  endfacet
  facet normal 0 -1 0
    outer loop
      vertex 13.997 -40 15.75
      vertex 14.12 -40 16.523
      vertex 12.5 -40 20
    endloop
  endfacet
  facet normal -1 0 0
    outer loop
      vertex -30 -38 4.73733
      vertex -30 -21.998 4.73733
      vertex -30 -38 0
    endloop
  endfacet
  facet normal 1 0 0
    outer loop
      vertex 14 -38 4.76885
      vertex 14 -23.003 5.247
      vertex 14 -38 13.247
    endloop
  endfacet
  facet normal 0 -1 0
    outer loop
      vertex 13.997 -40 15.75
      vertex 12.5 -40 20
      vertex 14.12 -40 14.977
    endloop
  endfacet
  facet normal 0 -1 0
    outer loop
      vertex 13.997 -40 7.252
      vertex 14.12 -40 14.977
      vertex 12.5 -40 20
    endloop
  endfacet
  facet normal -1 0 0
    outer loop
      vertex -30 -10 0
      vertex -30 -38 0
      vertex -30 -21.998 4.73733
    endloop
  endfacet
  facet normal 1 0 0
    outer loop
      vertex 14 -21.998 15.76885
      vertex 14 -38 20
      vertex 14 -38 15.76885
    endloop
  endfacet
  facet normal 0.98758 0 -0.15714
    outer loop
      vertex 14 -21.998 15.76885
      vertex 14 -38 15.76885
      vertex 13.997 -21.998 15.75
    endloop
  endfacet
  facet normal -1 0 0
    outer loop
      vertex -30 -38 4.76267
      vertex -30 -23.003 5.247
      vertex -30 -21.998 4.76267
    endloop
  endfacet
  facet normal 0.98758 0 0.15714
    outer loop
      vertex 13.997 -40 15.75
      vertex 14 -38 15.73115
      vertex 13.997 -21.998 15.75
    endloop
  endfacet
  facet normal -1 0 0
    outer loop
      vertex -30 -38 4.76267
      vertex -30 -38 6.8552
      vertex -30 -23.003 5.247
    endloop
  endfacet
  facet normal 0 1 0
    outer loop
      vertex 12.5 -23.003 15.252
      vertex 14 -23.003 15.252
      vertex 14 -23.003 5.247
    endloop
  endfacet
  facet normal 0 0 -1
    outer loop
      vertex 12.5 -23.003 15.252
      vertex 12.5 -13.998 15.252
      vertex 14 -13.998 15.252
    endloop
  endfacet
  facet normal 0 0 -1
    outer loop
      vertex 14 -23.003 15.252
      vertex 12.5 -23.003 15.252
      vertex 14 -13.998 15.252
    endloop
  endfacet
endsolid stl_item0
